<?xml version="1.0" encoding="UTF-8"?><svg id="Layer_2" xmlns="http://www.w3.org/2000/svg" viewBox="0 0 101.73 87.28"><defs><style>.cls-1,.cls-2{fill:#1d1d1b;}.cls-3{fill:none;stroke-width:2px;}.cls-3,.cls-2{stroke:#1d1d1b;stroke-miterlimit:10;}</style></defs><g id="Layer_5"><path class="cls-1" d="M34.99,36.37c-5.27,2.95-11.89,3.66-16.08,8.02-2.31,2.4-3.56,5.6-4.7,8.73-.79,2.16-1.56,4.32-2.2,6.53-1.44,5.01-2.23,10.26-4.53,14.93-.94,1.91-2.13,3.71-2.88,5.71s-1.02,4.31-.09,6.23"/><path class="cls-1" d="M35.36,36.16c-3.46,1.91-7.34,2.84-10.9,4.51-3.16,1.47-6,3.43-7.86,6.44-1.1,1.78-1.88,3.73-2.6,5.69-.83,2.24-1.64,4.49-2.31,6.78-1.29,4.39-2.03,8.94-3.72,13.21-.94,2.38-2.36,4.5-3.4,6.82s-1.55,4.85-.48,7.18c0-.02.88-.46.87-.5-1.91-4.17,1.14-8.25,2.92-11.84,1.93-3.87,2.8-8.13,3.85-12.29s2.43-8.4,4.14-12.39c.78-1.81,1.71-3.57,3-5.07s2.93-2.67,4.74-3.52c3.61-1.68,7.53-2.63,11.02-4.57.2-.11.4-.22.59-.34.04-.02.31-.18.15-.1h0Z"/><path class="cls-1" d="M56.92,36.37c5.27,2.95,11.89,3.66,16.08,8.02,2.31,2.4,3.56,5.6,4.7,8.73.79,2.16,1.56,4.32,2.2,6.53,1.44,5.01,2.23,10.26,4.53,14.93.94,1.91,2.13,3.71,2.88,5.71s1.02,4.31.09,6.23"/><path class="cls-1" d="M56.48,36.62c3.26,1.8,6.88,2.75,10.28,4.23,1.67.73,3.29,1.6,4.7,2.77,1.51,1.25,2.68,2.83,3.6,4.55s1.67,3.73,2.37,5.64c.8,2.19,1.56,4.39,2.19,6.63,1.18,4.25,1.94,8.64,3.63,12.74s5.9,8.82,3.72,13.59c.11-.24.75-.25.87-.5,1.95-4.25-1.24-8.38-3.02-12.04-1.94-3.99-2.79-8.37-3.89-12.64-.56-2.19-1.23-4.35-1.98-6.49s-1.42-4.07-2.32-6.03c-.84-1.85-1.89-3.62-3.32-5.07-1.27-1.28-2.79-2.26-4.39-3.06-3.74-1.86-7.88-2.79-11.55-4.82-.16-.09-.72.58-.87.5h0Z"/><line class="cls-2" x1="4.51" y1="86.52" x2="87.4" y2="86.52"/><line class="cls-2" x1="34.99" y1="36.37" x2="56.92" y2="36.37"/><polygon class="cls-2" points="4.94 85.68 34.94 35.87 58.14 37.01 86.94 86.52 4.94 85.68"/><path class="cls-1" d="M25.17,77.55l-.33.07s-.03.01-.04.02c-.03.02-.06.03-.09.05-.1.06-.2.12-.31.18s-.2.12-.31.18l-.07.04s-.04.02-.06.04l.33-.07s.03-.01.04-.02c.03-.02.06-.03.09-.05.1-.06.2-.12.31-.18s.2-.12.31-.18l.07-.04s.04-.02.06-.04h0Z"/><path class="cls-1" d="M5.17,85.71c-.08.04-.16.09-.24.13-.2.11-.4.23-.59.34-.05.03-.09.06-.13.12-.05.09-.11.19-.1.3,0,.24.29.24.43.36l.87-.5c-.19.01-.35-.13-.47-.25,0,0-.15.08-.13.07-.1.06-.2.12-.31.18s-.2.12-.31.18c-.02,0-.13.06-.13.08,0,.1.09.17.17.22.1.06.21.11.33.09.01,0,.03-.01.04-.02.03-.02.06-.03.09-.05.1-.06.2-.12.31-.18s.2-.12.31-.18l.07-.04s.04-.02.06-.04c-.12.02-.23-.03-.33-.09-.08-.05-.17-.12-.17-.22l-.87.5c.13.12.29.26.47.25.01,0,.03-.01.04-.02.03-.02.06-.03.09-.05.1-.06.2-.12.31-.18s.2-.12.31-.18c.01,0,.12-.08.13-.08-.12-.11-.34-.11-.41-.27-.03-.08-.01-.18.02-.26.03-.07.07-.17.14-.21l-.74.43h.01s-.09.04-.13.06h.01s.09-.05.13-.07c.1-.06.2-.12.31-.18s.2-.12.31-.18c.04-.02.08-.06.13-.08h0Z"/><path class="cls-1" d="M37.36,37.69c-.19-.22-.46-.46-.77-.43-.15.01-.28.09-.41.17-.22.12-.44.25-.67.38-.02.01-.09.04-.11.06.02-.01.34-.19.16-.09-.08.05-.17.09-.26.13s-.17.07-.25.11c-.02,0-.04.01-.06.02-.04.02-.04.01,0-.02,0-.03.06-.08.08-.11.23-.31.48-.6.73-.89-.02.02-.11.06-.13.07-.1.06-.2.12-.31.18-.14.08-.3.16-.43.25-.47.35-.96.68-1.45.99l.85-.49,1.21-1.35s-.11.06-.13.07c-.1.06-.2.12-.31.18-.14.08-.3.16-.43.25l-1.6,1.21.87-.5c.09-.25.27-.44.44-.64.19-.22.39-.44.58-.67-.02.02-.11.06-.13.07-.1.06-.2.12-.31.18-.14.08-.3.15-.43.25-.32.25-.64.49-.96.74l.87-.5c.24-.32.51-.62.79-.9-.03.02-.1.06-.13.07-.1.06-.2.12-.31.18-.14.08-.3.15-.43.25-.31.24-.61.51-.88.79l.87-.5c.18-.25.38-.48.6-.69-.02.02-.11.06-.13.07-.1.06-.2.12-.31.18-.14.08-.3.16-.43.25-.05.03-.05.05-.04.11,0-.02.4-.22.44-.25.04-.02.44-.22.43-.25,0-.06,0-.07.04-.11l-.87.5c-.22.22-.42.45-.6.69.01-.02.12-.07.13-.07.1-.06.2-.12.31-.18s.2-.12.31-.18c.04-.02.09-.04.13-.08.27-.29.56-.55.88-.79l-.87.5c-.29.28-.55.58-.79.9.02-.02.12-.06.13-.07.1-.06.2-.12.31-.18.14-.08.3-.15.43-.25.32-.25.64-.49.96-.74l-.87.5c-.19.22-.39.44-.58.67-.17.2-.35.39-.44.64,0-.01.14-.07.13-.07.1-.06.2-.12.31-.18.14-.08.3-.16.43-.25l1.6-1.21-.87.5-1.21,1.35s.11-.06.13-.07c.08-.05.17-.09.25-.14.16-.09.32-.18.47-.28.51-.32,1-.66,1.48-1.01l-.87.5c-.26.29-.5.58-.73.89-.02.03-.07.08-.08.11-.03.03-.03.04,0,.02.03,0,.06-.02.09-.03.08-.03.15-.06.23-.09.15-.07.3-.15.44-.23.22-.12.43-.24.65-.37.09-.05.18-.1.27-.16l-.33.19.09-.04s.07-.02.11-.03c.33-.06.63.19.83.42.01.01.4-.23.44-.25.03-.02.42-.26.43-.25h0Z"/><path class="cls-1" d="M35.15,35.97l.06-.13s-.13.07-.13.07c-.1.06-.2.12-.31.18s-.2.12-.31.18c-.04.02-.09.04-.13.08-.33.34-.66.68-1.01,1-.17.16-.35.31-.53.45-.09.07-.18.14-.28.21-.05.04-.11.07-.16.11-.03.02-.23.14-.07.05l.65-.37,2.18-1.78c-.09.07-.22.12-.32.18-.16.09-.33.19-.49.28-.8.48-1.54,1.04-2.26,1.63.12-.1.3-.17.44-.25s.3-.15.43-.25l2.09-1.71s-.04.02-.06.03c-.37.2-.74.41-1.09.64-.25.17-.48.36-.72.54-.51.39-1.01.79-1.52,1.18l.87-.5c.71-.78,1.59-1.36,2.46-1.94h.01c-.05-.13-.26.04-.32.07-.24.14-.5.26-.72.42-.28.2-.54.44-.81.67s-.52.43-.79.64c-.14.11-.28.21-.42.31-.08.06-.17.12-.26.17-.06.04-.32.2-.07.05l.55-.31c.96-.75,1.94-1.47,2.95-2.15l-.85.49-.07.08s.11-.06.13-.07c.1-.06.2-.12.31-.18s.2-.12.31-.18c.04-.02.1-.04.13-.08l.07-.08s-.11.06-.13.07c-.08.05-.17.09-.25.14-.16.09-.32.18-.47.28-1.02.69-2.02,1.41-2.98,2.17.05-.04.12-.06.17-.1.13-.07.25-.14.38-.22.55-.32,1.08-.67,1.58-1.06.23-.18.46-.37.68-.56.24-.2.47-.43.73-.6l-.85.49s.09-.05.12-.02c.05.05-.06.09-.09.12-.12.08-.24.16-.36.24-.23.16-.46.31-.69.48-.47.34-.91.72-1.3,1.15.02-.02.11-.06.13-.07.1-.06.2-.12.31-.18.14-.08.3-.15.43-.25.4-.31.8-.63,1.2-.94.19-.15.39-.3.58-.45.09-.07.18-.14.27-.21.06-.04.11-.08.17-.13.03-.02.06-.04.09-.06.26-.16.06-.05-.6.34l-.06.03-2.09,1.71.87-.5c.68-.56,1.39-1.1,2.14-1.55l-.81.46-2.18,1.78c.06-.05.15-.08.22-.12.15-.08.29-.17.44-.25.47-.28.92-.59,1.33-.95s.78-.74,1.15-1.13l-.87.5-.06.13s.13-.07.13-.07c.1-.06.2-.12.31-.18s.2-.12.31-.18c.03-.02.11-.05.13-.08h0Z"/><path class="cls-1" d="M35.17,35.66c-.08,0-.14.02-.2.06-.15.08-.29.16-.43.25-.2.11-.39.23-.57.37-.36.28-.73.56-1.09.84-.72.55-1.44,1.11-2.16,1.66.26-.2.6-.3.87-.5.57-.44,1.14-.88,1.71-1.32.28-.22.56-.43.84-.65s.57-.48.89-.67l-.85.49c.06-.02.08-.03.14-.02.02,0,.13-.07.13-.07.1-.06.2-.12.31-.18s.2-.12.31-.18c.02-.01.1-.08.13-.08h0Z"/><path class="cls-1" d="M34.25,36.08c-1.3.87-2.59,1.77-3.87,2.68l.87-.5s-.03-.05,0-.09c0,.02-.13.07-.13.07-.1.06-.2.12-.31.18s-.2.12-.31.18c-.03.02-.11.05-.13.08-.02.04-.02.06,0,.09.01.02.8-.45.87-.5,1.27-.9,2.55-1.79,3.84-2.66-.2.13-.59.31-.84.48h0Z"/><path class="cls-1" d="M34.72,36.11c-1.05.55-2.01,1.26-2.98,1.92l.87-.5c.42-.33.84-.65,1.27-.98h-.02c-.48.25-.95.52-1.4.82-.29.19-.55.4-.8.63l.87-.5c.19-.24.45-.4.7-.57.28-.18.56-.36.84-.54h.01c-.41.16-.8.41-1.18.64-.23.14-.43.3-.62.49.02-.02.11-.06.13-.07.1-.06.2-.12.31-.18s.2-.12.31-.18c.04-.02.09-.04.13-.08.35-.34.77-.6,1.19-.86-.02.01.1-.06.04-.03-.07.03-.14.08-.2.11-.2.11-.4.23-.59.34-.46.28-.92.56-1.31.93l.87-.5c.08-.08.16-.16.25-.23.04-.04.09-.07.14-.1.03-.02.05-.04.08-.05.3-.2-.76.43-.62.36.06-.03.11-.06.17-.08.02,0,.04-.02.01,0s-.06.04-.09.06c-.11.07-.22.14-.32.21-.38.24-.82.48-1.1.83.02-.02.12-.06.13-.07.1-.06.2-.12.31-.18s.2-.12.31-.18c.04-.02.09-.04.13-.08.16-.15.34-.3.52-.44.1-.07.2-.14.3-.21.02-.01.04-.03.07-.04.27-.17-.67.38-.54.31.02-.01.04-.02.06-.03.02,0,.07-.05.06-.03-.02.04-.1.08-.13.1l-.16.12c-.11.08-.21.16-.32.24-.21.16-.42.33-.63.49.03-.03.09-.05.13-.07.1-.06.2-.12.31-.18.14-.08.29-.16.43-.25.33-.23.66-.45.99-.68.16-.11.32-.22.49-.33.09-.06.18-.12.26-.18.03-.02.07-.04.1-.07.37-.24-.89.49-.56.32.18-.09.36-.2.53-.3.09-.05.17-.1.26-.15,0,0,.08-.05.04-.03h0Z"/><path class="cls-1" d="M56.37,37.11c-.25-.27-.05-.6.2-.77l-.06.04c-.67.3-.85.42-.55.36.05,0,.09,0,.13.03.06.02.38-.21.44-.25.03-.02.42-.26.43-.25-.07-.09-.19-.25-.04-.33l-.85.49c.16,0,.33.14.48.2.19.07.39.13.58.19.38.12.7.31,1.03.52.75.48,1.5.97,2.25,1.45.04.02.39-.22.44-.25s.4-.28.43-.25c-.51-.33-1.01-.65-1.52-.98-.47-.3-.93-.66-1.44-.88-.24-.1-.5-.16-.74-.25-.12-.04-.24-.09-.36-.15-.09-.04-.18-.13-.29-.11s-.24.13-.32.18c-.15.09-.3.17-.45.26-.19.11-.22.21-.06.4l.87-.5c-.17-.07-.31.03-.46.11-.25.14-.5.28-.74.43-.27.17-.53.51-.26.81.06.06.82-.55.87-.5h0Z"/><path class="cls-1" d="M56.98,36.05l.06-.05-.87.5c.4-.19.97.21,1.32.37.52.24,1.04.49,1.55.75,1.01.51,1.99,1.07,2.95,1.66.04.02.39-.22.44-.25s.39-.28.43-.25c-1.17-.72-2.37-1.38-3.6-1.98-.57-.28-1.16-.61-1.77-.81-.25-.08-.42-.02-.63.1-.25.14-.53.27-.75.45.26-.21.61-.29.87-.5h0Z"/><path class="cls-1" d="M56.53,36.18s.03-.04.05-.06h-.01s.01,0,.02,0l-.84.48h.02s-.01,0-.02,0c.12-.05.25,0,.37-.04.04-.01.09-.05.13-.07.1-.06.2-.12.31-.18s.2-.12.31-.18c.03-.02.09-.07.13-.08h-.2c-.29.18-.58.35-.87.51.15-.04.29-.07.44-.09l.87-.5-.32.05-.87.5.36-.12.13-.08h-.02c.25-.13.49-.27.74-.41-.08.04-.19.04-.28.02l-.87.5c.06-.02.13-.04.19-.07l.87-.5s-.08.03-.12.03c-.02,0-.12.03-.07,0l-.81.47h.02s-.04,0-.06.02c.03-.01.06-.02.1-.03l.87-.5-.23.04-.87.5c.06-.02.12-.03.18-.05.04,0,.14-.04.18-.02.02,0,.04.04.06.05.02.02.04.03.07.05.05.03.11.06.16.09.22.11.46.19.69.28.01,0,.14-.08.13-.07.1-.06.2-.12.31-.18s.2-.12.31-.18c.02-.01.11-.08.13-.08-.23-.09-.47-.17-.69-.28-.05-.03-.1-.05-.15-.08-.04-.03-.08-.08-.13-.1-.04-.02-.13,0-.18,0-.07.01-.13.03-.19.05-.04.01-.09.05-.13.07-.1.06-.2.12-.31.18s-.2.12-.31.18c-.03.02-.09.07-.13.08l.23-.04s.11-.06.13-.07c.1-.06.2-.12.31-.18s.2-.12.31-.18c.03-.02.09-.07.13-.08-.06,0-.11.03-.16.06-.19.1-.38.21-.56.32-.08.04-.15.09-.23.13-.01,0-.02.01-.04.02-.03.01-.03.02,0,.01.05.02.15-.02.19-.04.04-.02.09-.05.13-.07.1-.06.2-.12.31-.18s.2-.12.31-.18c.04-.02.08-.06.13-.08-.06.02-.13.04-.19.07-.04.01-.09.05-.13.07-.1.06-.2.12-.31.18s-.2.12-.31.18c-.02.01-.11.08-.13.08.08.02.19.02.27-.01.1-.04.19-.1.28-.16.17-.09.33-.19.5-.29.03-.02.09-.06.13-.08l-.36.12s-.09.05-.13.07c-.1.06-.2.12-.31.18s-.2.12-.31.18c-.03.02-.09.07-.13.08l.32-.05s.11-.06.13-.07c.1-.06.2-.12.31-.18s.2-.12.31-.18c.03-.02.09-.07.13-.08-.15.02-.3.05-.44.09-.04.01-.1.05-.13.07-.1.06-.2.12-.31.18s-.2.12-.31.18c-.03.02-.09.07-.13.08h.2c.29-.18.58-.35.87-.51-.13.04-.26-.01-.39.05-.24.12-.46.26-.69.39-.08.04-.19.09-.23.17,0-.01.13-.07.13-.07.1-.06.2-.12.31-.18s.2-.12.31-.18c.03-.02.11-.05.13-.08h0Z"/><path class="cls-1" d="M35.2,37.2c-.06-.15.21-.58-.05-.65-.12-.03-.32.12-.42.17-.17.09-.34.18-.5.28-.67.38-1.32.79-1.96,1.24l.87-.5c.51-.55,1.02-1.11,1.54-1.66-.02.02-.11.06-.13.07-.1.06-.2.12-.31.18-.14.08-.3.16-.43.25l-.99.72.87-.5,1.06-.99c-.11.1-.31.17-.44.25-.14.08-.3.16-.43.25-.28.2-.57.4-.85.6.27-.19.58-.31.85-.49.44-.29.84-.64,1.18-1.05-.02.02-.12.06-.13.07-.1.06-.2.12-.31.18-.13.07-.33.14-.43.25-1.11,1.3-2.63,2.17-4.04,3.09.2-.13.58-.31.84-.48,1.42-.93,2.95-1.8,4.07-3.11l-.87.5c-.33.4-.71.74-1.15,1.03l.85-.49c.28-.2.57-.4.85-.6l-.87.5-1.06.99c.11-.1.31-.17.44-.25.14-.08.3-.16.43-.25l.99-.72-.87.5c-.51.55-1.02,1.11-1.54,1.66.02-.02.11-.06.13-.07.1-.06.2-.12.31-.18.14-.08.29-.16.43-.25.2-.14.41-.29.61-.43.11-.07.21-.14.32-.21.24-.15-.33.18-.31.17.06-.02.11-.06.17-.09.14-.07.42-.26.47,0,.03.18-.13.33-.06.51-.02-.05.89-.44.87-.5h0Z"/><path class="cls-1" d="M84.48,80.03l-.08.06s-.02.02-.04.03c0,0-.02.02-.02.03-.01.03.02.05.03.06.02.02.04.05.07.07.01,0,.03-.01.04-.02.03-.02.06-.03.09-.05.1-.06.2-.12.31-.18s.2-.12.31-.18l.07-.04s.04-.02.06-.04c-.02-.02-.04-.05-.07-.07-.02-.02-.04-.04-.03-.06,0-.01.01-.02.02-.03.01,0,.03-.02.04-.03l.08-.06s-.03.01-.04.02c-.03.02-.06.03-.09.05-.1.06-.2.12-.31.18s-.2.12-.31.18l-.07.04s-.04.02-.06.04h0Z"/><path class="cls-1" d="M86.11,83.92l-.07-.09s-.03.01-.04.02c-.03.02-.06.03-.09.05-.1.06-.2.12-.31.18s-.2.12-.31.18l-.07.04s-.04.02-.06.04l.07.09s.03-.01.04-.02c.03-.02.06-.03.09-.05.1-.06.2-.12.31-.18s.2-.12.31-.18l.07-.04s.04-.02.06-.04h0Z"/><path class="cls-1" d="M43.67,27.99c.02.69-.2,1.32-.6,1.88-.22.31-.5.55-.79.8l.19-.08c-.15.08-.31.15-.48.21-.23.09-.47.17-.72.23-1.69.46-3.52.51-5.26.66-3.63.31-7.28.53-10.87,1.2-3.02.56-6,1.46-8.71,2.92-1.01.54-2,1.12-2.94,1.78-1.11.78-2.69,1.82-3.08,3.2-.23.8.2,1.4.91,1.71.86.38,1.85.58,2.76.76,2,.41,4.05.54,6.09.41.3-.02.57-.48.87-.5-1.8.11-3.61.02-5.39-.28-.81-.14-1.62-.32-2.41-.55-.63-.18-1.46-.35-1.84-.95-.84-1.32,1.03-2.79,1.9-3.5,1.37-1.12,2.88-1.97,4.52-2.64,6.33-2.61,13.27-2.6,19.97-3.3,1.59-.17,3.06-.4,4.46-1.21,1.23-.71,2.32-1.69,2.28-3.24,0,.15-.87.33-.87.5h0Z"/><path class="cls-1" d="M39.43,29.81c.21.58.17,1.15-.11,1.69-.16.3-.38.57-.62.81-.13.13-.26.25-.41.36,0,0-.37.29-.25.21-.68.43-1.58.63-2.34.86-.88.27-1.77.49-2.67.69-3.46.77-7,1.08-10.52,1.5-3.16.37-6.31.81-9.36,1.74-2.44.74-4.72,1.79-6.9,3.11-2.6,1.57-4.83,3.69-6.25,6.4.13-.25.73-.25.87-.5,1.32-2.51,3.34-4.54,5.72-6.07s5.29-2.43,8.04-3.07c6.66-1.54,13.64-1.31,20.21-3.3,1.89-.57,6.46-2.18,5.45-4.94.02.05-.89.44-.87.5h0Z"/><path class="cls-1" d="M49.12,28.48c4.56,3.75,10.09,7.92,16.34,5.83,2.61-.87,4.95-2.51,7.69-3.01,2.39-.44,5.09.03,6.41,2.28,1.39,2.38.78,5.47.19,8,.05-.22.81-.27.87-.5.54-2.31,1.07-4.96.18-7.25-.95-2.43-3.4-3.38-5.86-3.16-2.75.24-5.1,1.74-7.6,2.76-2.89,1.17-5.84,1.19-8.77.11-3.23-1.19-5.93-3.41-8.57-5.57-.1-.08-.78.57-.87.5h0Z"/><path class="cls-1" d="M52.15,31.7c2.79-1.49,5.66-2.81,8.61-3.94,1.44-.55,2.9-1.06,4.37-1.52,1.34-.42,2.71-.91,4.1-1.1,1.06-.14,2.32-.07,3,.89.74,1.04.31,2.44-.23,3.47-1.2,2.28-3.15,4.17-4.95,5.98s-3.71,3.64-5.16,5.8c-.73,1.08-1.57,2.38-1.59,3.72-.02,1.23.79,2.21,1.86,2.72,1.31.63,2.79.45,4.15.12,1.56-.38,3.11-.86,4.65-1.32,3.12-.92,6.23-1.9,9.33-2.91,6.89-2.24,13.73-4.66,20.57-7.07.31-.11.56-.39.87-.5-6.14,2.17-12.29,4.34-18.48,6.38-3.09,1.02-6.19,2.01-9.31,2.96-1.56.47-3.12.93-4.69,1.38-1.48.42-3.03.96-4.59.86-1.18-.08-2.41-.61-3.07-1.63-.81-1.25-.28-2.7.37-3.9,1.22-2.25,2.99-4.14,4.79-5.94s3.69-3.6,5.19-5.69c.73-1.02,1.5-2.19,1.56-3.48s-.78-2.18-1.99-2.36c-1.43-.21-2.93.35-4.28.75-1.67.49-3.31,1.04-4.94,1.65-3.19,1.19-6.29,2.6-9.29,4.2-.26.14-.63.37-.83.48h0Z"/><ellipse class="cls-3" cx="45.95" cy="14.46" rx="7.62" ry="13.46"/><rect class="cls-2" x="70.92" y="46.27" width=".91" height=".03"/><line class="cls-2" x1="34.66" y1="33" x2="56.9" y2="33"/><path class="cls-1" d="M42.39,23.16c.7-1.01,1.45-1.97,2.26-2.9.13-.15.27-.3.46-.35.21-.05.43.04.63.13,1.54.73,2.91,1.79,4.01,3.1,1.02,1.22,1.79,2.62,2.77,3.87s2.25,2.37,3.8,2.69c.63.13,1.3.11,1.87-.18,1.06-.54,1.48-1.91,1.32-3.1s-.76-2.26-1.26-3.35-.92-2.29-.68-3.47c-.02,1.73,1.01,3.26,1.86,4.76s1.55,3.33.86,4.91c-.7,1.61-2.65,2.43-3.28,4.07"/><path class="cls-1" d="M42.82,22.91c.74-1.06,1.54-2.34,2.54-3.17l-.87.5c.47-.22.93.1,1.35.33.45.24.88.51,1.3.81.8.58,1.53,1.25,2.17,2.01,1.34,1.6,2.25,3.54,3.77,4.99,1.26,1.2,3.19,2.21,4.87,1.29.51-.28,1.06-.56,1.42-1.03.48-.64.65-1.5.58-2.29-.22-2.47-2.4-4.4-1.97-6.99l-.87.5c.03,2.92,2.66,4.94,2.97,7.79.15,1.32-.38,2.39-1.3,3.31-.82.83-1.78,1.54-2.24,2.64.1-.24.76-.25.87-.5.45-1.08,1.37-1.78,2.18-2.58.94-.93,1.51-2.01,1.36-3.37-.32-2.85-2.94-4.87-2.97-7.79,0,.17-.84.32-.87.5-.33,1.99.89,3.65,1.57,5.42.3.78.49,1.61.37,2.44-.05.34-.14.68-.3.99-.07.15-.16.3-.26.43-.13.17-.68.59-.02.21l.13-.07c-1.82.82-3.8-.46-5.02-1.76-1.44-1.53-2.34-3.47-3.76-5.01-.64-.7-1.37-1.33-2.17-1.86-.6-.4-1.62-1.2-2.35-.89-.53.23-.96.57-1.34,1.01-.72.85-1.4,1.73-2.03,2.64.17-.24.69-.25.87-.5h0Z"/><path class="cls-1" d="M42.44,23.02c-1.31.8-2.99.5-4.47.1-.25-.07-.51-.14-.77-.09-.44.09-.72.52-.98.89-1.83,2.66-5.07,4.28-8.28,4.15-.29-.01-.65-.08-.74-.36,1.34,1.99,3.32,3.53,5.56,4.35.89.32,1.84.54,2.61,1.09"/><path class="cls-1" d="M42.74,22.84c-.77.43-1.69.48-2.55.39-.41-.04-.81-.12-1.21-.21-.37-.09-.77-.26-1.16-.25-.43,0-.89.35-1.24.57-.51.32-.78.84-1.14,1.3-1,1.27-2.22,2.2-3.73,2.71-.69.23-1.4.38-2.12.45-.55.05-1.65.25-1.97-.33l-.87.5c.94,1.37,2.16,2.54,3.59,3.4.69.41,1.41.75,2.16,1.01.83.29,1.68.53,2.42,1.03.13.09.75-.58.87-.5-.71-.48-1.52-.72-2.32-.99s-1.55-.61-2.26-1.04c-1.43-.86-2.65-2.03-3.59-3.4-.01-.02-.87.5-.87.5.26.47.95.38,1.41.36.57-.02,1.13-.09,1.68-.21,1.03-.22,1.99-.62,2.9-1.14.78-.44,1.56-.9,2.25-1.48.43-.37.83-.77,1.19-1.21s.65-1.02,1.13-1.37l-.85.49c.54-.28,1.1-.01,1.64.12.5.12,1,.21,1.51.24.9.06,1.72-.11,2.5-.56.21-.12.41-.23.61-.35.12-.08.16-.1,0,0h0Z"/><path class="cls-1" d="M27.32,27.41c-.55-.1-.7-.9-.39-1.37s.87-.69,1.38-.91c1.43-.63,2.73-1.55,3.82-2.68.85-.89,1.8-2.02,3.03-1.88.76.09,1.36.65,2.03,1,.57.29,1.2.44,1.82.58.73.16,1.46.33,2.19.49"/><path class="cls-1" d="M27.75,27.16c-.58-.17-.68-.9-.39-1.37.26-.43.96-.61,1.53-.92,1.18-.65,2.31-1.36,3.29-2.3.56-.53,1.04-1.21,1.68-1.65.1-.08.1-.08,0,0,.08-.03.17-.06.25-.07.18-.04.35-.05.53-.04.38.03.73.18,1.05.36.72.41,1.35.83,2.16,1.05.96.26,1.94.45,2.91.67.24.05.63-.55.87-.5-1.07-.24-2.17-.43-3.22-.76-.89-.28-1.57-.96-2.45-1.24-1.21-.38-2.63.67-3.46,1.47-.69.66-1.31,1.38-2.06,1.97-.87.68-1.38.83-2.39,1.37-.43.23-.95.47-1.31.81-.47.44-.63,1.42.15,1.65.22.07.65-.56.87-.5h0Z"/><path class="cls-1" d="M50.52,22.09c.56.35,1.18.6,1.82.76.16.04.33.07.48.16.36.22.45.7.74,1.01.17.19.42.31.67.34.41.04.82-.17,1.1-.48s.46-.69.62-1.08c.14-.33.27-.68.52-.93.16-.16.37-.28.59-.34"/><path class="cls-1" d="M50.09,22.34c.38.23.78.43,1.2.57.36.13.85.15,1.16.39.27.21.37.55.55.82.22.31.55.5.94.48.34-.02.63-.21.92-.37.31-.18.65-.34.9-.61.29-.3.46-.69.62-1.08.08-.2.16-.4.27-.59.05-.09.11-.18.18-.26.11-.13.39-.31-.16,0l-.32.18c.09-.04.18-.08.27-.1.31-.09.56-.41.87-.5-.33.1-.62.3-.91.47s-.55.33-.74.62c-.45.69-.54,1.53-1.27,2.02l.13-.08c.85-.51.29-.17-.09-.22-.19-.03-.37-.11-.52-.23-.3-.25-.39-.65-.64-.94-.28-.32-.74-.34-1.12-.46-.48-.15-.94-.37-1.37-.63-.04-.02-.39.22-.44.25s-.39.28-.43.25h0Z"/><polygon class="cls-2" points="35.7 32.37 42.44 23.98 51.47 27.09 56.08 32.37 35.7 32.37"/></g></svg>