<?xml version="1.0" encoding="UTF-8"?><svg id="Layer_2" xmlns="http://www.w3.org/2000/svg" viewBox="0 0 101.73 88.32"><defs><style>.cls-1{fill:#1d1d1b;}.cls-1,.cls-2,.cls-3{stroke:#fff;stroke-miterlimit:10;}.cls-4,.cls-2{fill:#fff;}.cls-3{fill:none;stroke-width:2px;}</style></defs><g id="Layer_15"><path class="cls-4" d="M34.99,36.8c-5.27,2.98-11.89,3.71-16.08,8.11-2.31,2.43-3.56,5.67-4.7,8.84-.79,2.18-1.56,4.38-2.2,6.61-1.44,5.07-2.23,10.38-4.53,15.11-.94,1.94-2.13,3.76-2.88,5.78s-1.02,4.36-.09,6.31"/><path class="cls-4" d="M35.29,36.62c-3.51,1.97-7.48,2.89-11.09,4.64-1.32.64-2.64,1.38-3.82,2.24-1.65,1.2-2.97,2.74-4,4.5s-1.82,3.81-2.54,5.79c-.83,2.28-1.64,4.58-2.3,6.92-1.25,4.41-2,8.99-3.73,13.25s-5.95,8.99-3.75,13.83c-.01-.02.88-.46.87-.5-1.86-4.1.99-8.15,2.78-11.68,1.98-3.91,2.88-8.22,3.92-12.45s2.45-8.63,4.18-12.74c.78-1.86,1.73-3.68,3.04-5.23s2.93-2.71,4.74-3.56c3.63-1.72,7.57-2.69,11.09-4.66.21-.12.41-.23.61-.35.12-.08.16-.1,0,0h0Z"/><path class="cls-4" d="M56.92,36.8c5.27,2.98,11.89,3.71,16.08,8.11,2.31,2.43,3.56,5.67,4.7,8.84.79,2.18,1.56,4.38,2.2,6.61,1.44,5.07,2.23,10.38,4.53,15.11.94,1.94,2.13,3.76,2.88,5.78s1.02,4.36.09,6.31"/><path class="cls-4" d="M56.48,37.05c3.28,1.84,6.94,2.79,10.37,4.32,1.67.74,3.29,1.64,4.69,2.83,1.53,1.31,2.7,2.95,3.62,4.73.99,1.91,1.71,3.95,2.43,5.98.78,2.17,1.51,4.35,2.11,6.58,1.17,4.32,1.94,8.77,3.69,12.91s5.72,8.7,3.58,13.42c.11-.24.75-.25.87-.5,1.89-4.18-1.09-8.28-2.88-11.88-1.98-3.99-2.86-8.39-3.93-12.69s-2.48-8.69-4.27-12.78c-.84-1.91-1.87-3.77-3.32-5.29-1.27-1.33-2.81-2.36-4.44-3.19-3.76-1.91-7.94-2.85-11.64-4.92-.15-.09-.72.58-.87.5h0Z"/><line class="cls-2" x1="4.51" y1="87.56" x2="87.4" y2="87.56"/><line class="cls-2" x1="34.99" y1="36.8" x2="56.92" y2="36.8"/><polygon class="cls-2" points="4.94 86.71 34.94 36.29 58.14 37.44 86.94 87.56 4.94 86.71"/><path class="cls-4" d="M24.74,78.73l-.33.07"/><path class="cls-4" d="M25.17,78.48l-.33.07s-.03.01-.04.02c-.03.02-.06.03-.09.05-.1.06-.2.12-.31.18s-.2.12-.31.18l-.07.04s-.04.02-.06.04l.33-.07s.03-.01.04-.02c.03-.02.06-.03.09-.05.1-.06.2-.12.31-.18s.2-.12.31-.18l.07-.04s.04-.02.06-.04h0Z"/><path class="cls-4" d="M4.74,86.99c-.05.02-.08.07-.11.12-.03.06-.06.12-.08.18s-.01.14.02.2c.04.07.11.11.19.15s.15.06.21.11c-.13.01-.25-.06-.36-.15-.04-.03-.08-.07-.12-.1,0,.11.1.18.19.23.1.06.21.1.32.08"/><path class="cls-4" d="M5.17,86.74c-.08.04-.16.09-.24.13-.2.11-.4.23-.59.34-.05.03-.09.06-.13.12-.05.09-.11.2-.1.3,0,.24.29.24.43.37l.87-.5c-.19.01-.35-.13-.47-.25,0,0-.15.08-.13.07-.1.06-.2.12-.31.18s-.2.12-.31.18c-.02,0-.13.06-.13.08,0,.1.09.17.17.22.1.06.21.11.33.09.01,0,.03-.01.04-.02.03-.02.06-.03.09-.05.1-.06.2-.12.31-.18s.2-.12.31-.18l.07-.04s.04-.02.06-.04c-.12.02-.23-.03-.33-.09-.08-.05-.17-.12-.17-.22l-.87.5c.13.12.29.26.47.25.01,0,.03-.01.04-.02.03-.02.06-.03.09-.05.1-.06.2-.12.31-.18s.2-.12.31-.18c.01,0,.12-.08.13-.08-.12-.11-.34-.11-.41-.28-.03-.08-.01-.18.02-.26.03-.07.07-.17.14-.22l-.65.38h.01c-.07.03-.14.07-.22.11h.01s.09-.05.13-.07c.1-.06.2-.12.31-.18s.2-.12.31-.18c.04-.02.08-.06.13-.08h0Z"/><path class="cls-4" d="M36.93,38.39c-.21-.25-.51-.49-.83-.42-.11.02-.21.08-.31.14-.41.24-.81.49-1.25.64.26-.36.54-.7.83-1.04-.48.36-.96.7-1.47,1.02l1.21-1.37-1.6,1.22c.07-.22.23-.4.38-.57.21-.25.43-.5.64-.75-.32.25-.64.5-.96.75.24-.32.51-.63.79-.91-.31.24-.61.51-.88.8.18-.25.38-.49.6-.7-.04.01-.06.07-.04.11"/><path class="cls-4" d="M37.36,38.14c-.2-.23-.47-.48-.8-.43-.15.02-.29.11-.42.18-.26.15-.51.29-.77.44-.04.02-.07.04-.11.06-.13.08.36-.2.3-.17-.1.04-.19.1-.29.14-.08.04-.17.09-.25.1-.07.02-.05.03-.02-.03.02-.04.05-.07.08-.1.23-.3.47-.6.72-.88-.02.02-.11.06-.13.07-.1.06-.2.12-.31.18-.14.08-.3.16-.43.25-.47.35-.95.69-1.45,1.01l.85-.49,1.21-1.37s-.11.06-.13.07c-.1.06-.2.12-.31.18-.14.08-.3.15-.43.25l-1.6,1.22.87-.5c.09-.25.27-.45.44-.65.19-.22.39-.45.58-.67-.02.02-.11.06-.13.07-.1.06-.2.12-.31.18-.14.08-.3.15-.43.25-.32.25-.64.5-.96.75l.87-.5c.24-.32.51-.63.79-.91-.02.02-.11.06-.13.07-.1.06-.2.12-.31.18-.14.08-.3.15-.43.25-.31.24-.61.51-.88.8l.87-.5c.18-.25.38-.48.6-.7-.07.07-.23.13-.32.18-.16.09-.33.19-.49.28-.06.04-.12.06-.1.14,0-.01.4-.23.44-.25.04-.02.44-.22.43-.25-.01-.04,0-.06.02-.09l-.06.04.03-.02-.81.46c-.22.22-.42.45-.6.7.01-.02.12-.07.13-.07.1-.06.2-.12.31-.18s.2-.12.31-.18c.04-.02.1-.04.13-.08.27-.29.56-.56.88-.8l-.87.5c-.29.28-.55.59-.79.91.01-.02.12-.07.13-.07.1-.06.2-.12.31-.18.14-.08.3-.15.43-.25.32-.25.64-.5.96-.75l-.87.5c-.19.22-.39.45-.58.67-.17.2-.35.4-.44.65,0-.01.14-.07.13-.07.1-.06.2-.12.31-.18.14-.08.3-.15.43-.25l1.6-1.22-.87.5-1.21,1.37s.11-.06.13-.07c.08-.05.17-.09.25-.14.16-.09.32-.18.47-.28.51-.32,1-.67,1.48-1.03l-.87.5c-.25.28-.49.58-.72.88-.02.03-.06.07-.08.1-.04.08-.03.05.05.02.09-.03.17-.07.25-.11.15-.07.3-.15.44-.23.24-.13.47-.27.7-.4.1-.06.2-.12.3-.17.08-.05.26-.16-.13.08-.34.21-.22.12-.12.09.34-.08.65.17.85.42.01.01.4-.23.44-.25.03-.02.42-.26.43-.25h0Z"/><path class="cls-4" d="M34.72,36.65l.06-.13c-.69.73-1.4,1.47-2.27,1.97l2.18-1.8c-.78.47-1.5,1.03-2.2,1.61l2.09-1.73c-.25.13-.47.31-.69.48-.61.48-1.22.96-1.83,1.44.7-.79,1.6-1.39,2.48-1.97-.01-.07-.12-.04-.17,0-.87.71-1.7,1.49-2.66,2.05.96-.77,1.95-1.5,2.97-2.19l-.07.08"/><path class="cls-4" d="M35.15,36.4l.06-.13s-.13.07-.13.07c-.1.06-.2.12-.31.18s-.2.12-.31.18c-.04.02-.09.04-.13.08-.65.68-1.32,1.41-2.14,1.9l.74-.42,2.18-1.8c-.1.09-.26.15-.38.21-.16.09-.32.18-.47.28-.78.48-1.51,1.03-2.21,1.62.12-.1.3-.17.44-.25s.31-.15.43-.25l2.09-1.73s-.1.05-.13.07c-.36.2-.73.4-1.07.64-.24.17-.46.36-.69.54-.5.39-1,.78-1.49,1.18l.87-.5c.71-.79,1.59-1.38,2.46-1.96h.01c-.05-.13-.26.04-.32.07-.24.14-.5.26-.72.42-.29.21-.55.46-.83.69-.54.46-1.1.92-1.71,1.28l.74-.42c.96-.76,1.94-1.49,2.95-2.18l-.85.49-.07.08s.11-.06.13-.07c.1-.06.2-.12.31-.18s.2-.12.31-.18c.04-.02.1-.04.13-.08l.07-.08s-.11.06-.13.07c-.08.05-.17.09-.25.14-.16.09-.32.18-.47.28-1.02.69-2.02,1.43-2.98,2.2.08-.06.19-.1.27-.15.16-.09.32-.18.47-.27.5-.3.97-.63,1.43-1,.23-.19.46-.38.68-.57s.45-.41.69-.58l-.85.49s.09-.04.12-.02c.05.04-.06.1-.09.12-.12.08-.24.16-.36.24-.24.16-.47.32-.7.49-.47.35-.91.73-1.3,1.16.02-.02.11-.06.13-.07.1-.06.2-.12.31-.18.14-.08.3-.15.43-.25.4-.32.8-.63,1.2-.95.19-.15.39-.3.58-.46.09-.07.18-.14.27-.21.05-.04.1-.08.16-.12.03-.02.07-.05.1-.07.23-.15.06-.05-.53.3l-.13.07-2.09,1.73.87-.5c.69-.58,1.41-1.13,2.18-1.6l-.85.49-2.18,1.8c.07-.06.19-.1.27-.15.16-.09.32-.18.47-.27.92-.55,1.66-1.28,2.39-2.05l-.87.5-.06.13s.13-.07.13-.07c.1-.06.2-.12.31-.18s.2-.12.31-.18c.03-.02.11-.05.13-.08h0Z"/><path class="cls-4" d="M34.74,36.34c-.08-.02-.16.03-.23.08-1.12.87-2.24,1.75-3.37,2.62"/><path class="cls-4" d="M35.17,36.09c-.08,0-.14.02-.2.06-.15.08-.29.16-.43.25-.2.12-.39.23-.57.37-.36.28-.73.57-1.09.85-.72.56-1.44,1.12-2.16,1.68.26-.2.6-.3.87-.5.57-.44,1.14-.89,1.71-1.33.28-.22.56-.44.84-.66s.57-.49.89-.68l-.85.49c.06-.02.08-.03.14-.02.02,0,.13-.07.13-.07.1-.06.2-.12.31-.18s.2-.12.31-.18c.02-.01.1-.08.13-.08h0Z"/><path class="cls-4" d="M34.67,36.27c-1.3.88-2.58,1.78-3.85,2.7-.03-.02-.03-.07,0-.1"/><path class="cls-4" d="M34.25,36.51c-1.3.89-2.59,1.79-3.87,2.71l.87-.5s-.03-.05,0-.1c0,.02-.13.07-.13.07-.1.06-.2.12-.31.18s-.2.12-.31.18c-.03.02-.11.05-.13.08-.02.04-.02.06,0,.1,0,.01.8-.45.87-.5,1.27-.91,2.55-1.81,3.84-2.69-.2.13-.59.31-.84.48h0Z"/><path class="cls-4" d="M34.3,36.79c-.17.09-.32.19-.47.3-.55.38-1.11.77-1.66,1.15.42-.33.84-.66,1.27-.99-.49.25-.95.58-1.35.96.16-.21.37-.36.59-.5.32-.22.64-.43.96-.63-.35.15-.67.37-.93.65.37-.36.81-.64,1.25-.91"/><path class="cls-4" d="M34.72,36.54c-1.05.56-2.01,1.27-2.98,1.94l.87-.5c.42-.33.84-.66,1.27-.99h-.02c-.48.25-.96.52-1.4.82-.29.19-.55.4-.8.64l.87-.5c.19-.24.45-.41.7-.58.28-.19.56-.37.84-.55h.01c-.41.17-.8.42-1.19.65-.22.14-.43.3-.61.48.02-.02.11-.06.13-.07.1-.06.2-.12.31-.18s.2-.12.31-.18c.04-.02.09-.04.13-.08.37-.36.8-.63,1.23-.9.06-.03-.07.04-.05.02-.09.05-.17.1-.26.15-.18.1-.36.2-.53.31-.44.27-.89.55-1.26.92l.87-.5c.16-.17.33-.3.52-.43.13-.09-.88.49-.61.36.03-.02.07-.04.1-.05.07-.02-.06.04-.08.06-.11.07-.22.14-.32.21-.38.25-.82.48-1.1.84.02-.02.12-.06.13-.07.1-.06.2-.12.31-.18s.2-.12.31-.18c.04-.02.09-.04.13-.08.16-.16.34-.3.52-.44.1-.07.2-.15.3-.21.02-.01.04-.03.07-.04.28-.18-.61.34-.51.29.03-.02.13-.08.06-.02-.39.33-.81.63-1.21.95.03-.03.09-.05.13-.07.1-.06.2-.12.31-.18.14-.08.29-.16.43-.25.32-.22.65-.45.97-.67.16-.11.31-.22.47-.32.08-.06.17-.12.25-.17.04-.03.08-.05.12-.08.02-.01.04-.03.07-.04.24-.15.04-.04-.59.34.18-.1.36-.2.53-.3.09-.05.17-.1.26-.15,0,0,.08-.05.04-.03h0Z"/><path class="cls-4" d="M55.93,37.8c-.12-.11-.15-.31-.08-.47s.2-.27.34-.35c.1-.06.23-.1.33-.04-.04-.05-.09-.11-.11-.18s.01-.15.08-.17c.06-.02.12.02.17.05.37.23.82.29,1.22.46.23.1.45.24.66.38.77.5,1.53,1,2.3,1.5"/><path class="cls-4" d="M56.37,37.55c-.25-.27-.06-.6.2-.78l-.06.04c-.67.3-.85.42-.55.36.05,0,.09,0,.13.03.06.02.38-.21.44-.25.03-.02.42-.26.43-.25-.07-.09-.19-.25-.04-.34l-.85.49c.16,0,.32.13.46.19.18.07.36.12.54.18.38.12.71.3,1.05.52.77.5,1.53,1,2.3,1.5.04.02.39-.22.44-.25s.4-.28.43-.25c-.51-.33-1.01-.66-1.52-.99-.48-.31-.95-.69-1.48-.91-.23-.09-.47-.15-.7-.23-.12-.04-.23-.08-.34-.13-.09-.05-.2-.14-.32-.13-.09.01-.19.11-.27.15-.16.09-.32.18-.47.27-.2.12-.27.21-.1.42l.87-.5c-.17-.07-.31.03-.46.11-.25.14-.5.28-.74.43-.28.18-.53.52-.26.82.05.06.82-.55.87-.5h0Z"/><path class="cls-4" d="M56.55,36.73c.17-.17.45-.09.68,0,1.8.8,3.54,1.72,5.21,2.76"/><path class="cls-4" d="M56.98,36.48l.06-.05-.87.5c.4-.19.97.21,1.32.38.52.24,1.04.5,1.55.76,1.01.52,1.99,1.08,2.95,1.68.04.02.39-.22.44-.25s.39-.28.43-.25c-1.17-.73-2.37-1.4-3.6-2.01-.57-.28-1.16-.62-1.77-.82-.25-.08-.42-.02-.63.1-.25.14-.53.27-.75.45.25-.21.61-.29.87-.5h0Z"/><path class="cls-4" d="M56.09,36.86c.03-.08.12-.11.2-.11s.17.02.24-.02h-.2c.15-.03.29-.06.44-.07l-.32.05.36-.12c-.07.04-.15.06-.23.04-.02,0-.05,0-.07,0,.06-.02.13-.04.19-.07-.06.03-.14.04-.21.04.04-.03.09-.05.14-.05l-.23.04c.12-.04.24-.06.36-.07.02.02.05.05.08.07.15.11.32.18.49.25.14.05.28.11.42.16"/><path class="cls-4" d="M56.53,36.61s.03-.04.05-.06h-.01s.01,0,.02,0l-.84.48h.02s-.01,0-.02,0c.12-.05.25,0,.37-.04.04-.01.09-.05.13-.07.1-.06.2-.12.31-.18s.2-.12.31-.18c.03-.02.09-.07.13-.08h-.2c-.29.18-.58.35-.87.51.15-.04.29-.07.44-.09l.87-.5-.32.05-.87.5.36-.12.06-.04h-.02c.27-.14.54-.3.81-.45-.08.04-.19.04-.28.02l-.87.5c.06-.02.13-.04.19-.07l.87-.5s-.08.03-.12.03c-.02,0-.12.03-.07,0l-.74.43h.02s-.09.03-.13.06c.03-.01.06-.02.1-.03l.87-.5-.23.04-.87.5c.06-.02.12-.04.18-.05.04,0,.14-.04.18-.02.02,0,.04.04.06.05.02.02.04.03.07.05.05.03.11.07.16.09.22.11.46.19.69.28.01,0,.14-.08.13-.07.1-.06.2-.12.31-.18s.2-.12.31-.18c.02-.01.11-.08.13-.08-.23-.09-.47-.17-.69-.28-.05-.03-.1-.05-.15-.09-.04-.03-.08-.08-.13-.1-.04-.02-.13,0-.18,0-.07.01-.13.03-.19.05-.04.01-.09.05-.13.07-.1.06-.2.12-.31.18s-.2.12-.31.18c-.03.02-.09.07-.13.08l.23-.04s.11-.06.13-.07c.1-.06.2-.12.31-.18s.2-.12.31-.18c.03-.02.09-.07.13-.08-.06,0-.11.03-.16.06-.19.1-.38.21-.56.32-.08.04-.15.09-.23.13-.01,0-.02.01-.04.02-.03.01-.03.02,0,.01.04.02.15-.02.19-.04.04-.02.09-.05.13-.07.1-.06.2-.12.31-.18s.2-.12.31-.18c.04-.02.08-.06.13-.08-.06.02-.13.04-.19.07-.04.02-.09.05-.13.07-.1.06-.2.12-.31.18s-.2.12-.31.18c-.02.01-.11.08-.13.08.09.02.19.02.28-.02.11-.05.21-.12.32-.18.17-.1.34-.2.51-.3.02-.01.04-.02.06-.04l-.36.12s-.09.05-.13.07c-.1.06-.2.12-.31.18s-.2.12-.31.18c-.03.02-.09.07-.13.08l.32-.05s.11-.06.13-.07c.1-.06.2-.12.31-.18s.2-.12.31-.18c.03-.02.09-.07.13-.08-.15.02-.3.05-.44.09-.04.01-.1.05-.13.07-.1.06-.2.12-.31.18s-.2.12-.31.18c-.03.02-.09.07-.13.08h.2c.29-.18.58-.35.87-.51-.13.04-.26-.01-.39.05-.24.12-.46.26-.69.39-.08.05-.19.09-.23.18,0-.01.13-.07.13-.07.1-.06.2-.12.31-.18s.2-.12.31-.18c.03-.02.11-.05.13-.08h0Z"/><path class="cls-4" d="M34.77,37.89c-.06-.11,0-.24.05-.35s.03-.28-.09-.31c-.05,0-.09.01-.13.03-.67.31-1.28.74-1.89,1.17.51-.56,1.02-1.12,1.54-1.68l-.99.73,1.06-1c-.28.2-.57.4-.85.6.44-.29.83-.64,1.16-1.05-.85,1.02-1.97,1.76-3.08,2.49-.33.22-.65.43-.98.65"/><path class="cls-4" d="M35.2,37.64c-.05-.15.03-.25.06-.4.02-.1,0-.23-.1-.26s-.32.12-.42.17c-.18.09-.35.19-.52.29-.67.38-1.31.79-1.94,1.24l.87-.5c.51-.56,1.02-1.12,1.54-1.68-.02.02-.11.06-.13.07-.1.06-.2.12-.31.18-.14.08-.3.16-.43.25l-.99.73.87-.5,1.06-1c-.11.1-.31.17-.44.25-.14.08-.3.16-.43.25-.28.2-.57.4-.85.6.26-.19.58-.31.85-.49.44-.29.84-.65,1.18-1.06-.02.02-.12.06-.13.07-.1.06-.2.12-.31.18-.13.07-.34.14-.43.25-1.11,1.31-2.63,2.19-4.04,3.13.2-.13.58-.31.84-.48,1.42-.94,2.96-1.83,4.07-3.15l-.87.5c-.33.4-.71.75-1.15,1.04l.85-.49c.28-.2.57-.4.85-.6l-.87.5-1.06,1c.11-.1.31-.17.44-.25.14-.08.3-.16.43-.25l.99-.73-.87.5c-.51.56-1.02,1.12-1.54,1.68.02-.02.11-.06.13-.07.1-.06.2-.12.31-.18.14-.08.3-.16.43-.25.19-.13.38-.27.57-.4.12-.08.24-.16.37-.24.04-.03.09-.05.13-.08-.02.01-.58.32-.27.16.14-.07.42-.26.47,0,.03.18-.13.33-.06.51-.02-.05.89-.44.87-.5h0Z"/><path class="cls-4" d="M84.92,80.73l-.11.09s-.03.02-.03.04c0,.01.01.03.02.04.03.03.06.06.08.09"/><path class="cls-4" d="M84.49,80.98l-.08.06s-.02.02-.04.03c0,0-.02.02-.02.03-.01.03.01.05.03.06.02.02.05.05.07.07.01,0,.03-.01.04-.02.03-.02.06-.03.09-.05.1-.06.2-.12.31-.18s.2-.12.31-.18l.07-.04s.04-.02.06-.04c-.02-.02-.04-.05-.07-.07-.02-.02-.04-.04-.03-.07,0-.01.01-.02.02-.03.01,0,.02-.02.04-.03l.08-.06s-.03.01-.04.02c-.03.02-.06.03-.09.05-.1.06-.2.12-.31.18s-.2.12-.31.18l-.07.04s-.04.02-.06.04h0Z"/><path class="cls-4" d="M85.68,85.18l-.07-.09"/><path class="cls-4" d="M86.11,84.93l-.07-.09s-.03.01-.04.02c-.03.02-.06.03-.09.05-.1.06-.2.12-.31.18s-.2.12-.31.18l-.07.04s-.04.02-.06.04l.07.09s.03-.01.04-.02c.03-.02.06-.03.09-.05.1-.06.2-.12.31-.18s.2-.12.31-.18l.07-.04s.04-.02.06-.04h0Z"/><path class="cls-4" d="M43.67,28.31c.02.7-.2,1.34-.6,1.9-.22.31-.5.56-.79.81l.19-.08c-.15.08-.31.15-.48.21-.23.09-.47.17-.72.24-1.69.46-3.52.51-5.26.66-3.63.31-7.28.54-10.87,1.21-3.02.57-6,1.48-8.71,2.95-1.01.55-2.01,1.13-2.94,1.79-1.11.79-2.69,1.85-3.08,3.23-.54,1.91,2.43,2.25,3.68,2.51,2,.41,4.05.55,6.09.42.3-.02.57-.48.87-.5-1.8.11-3.61.02-5.39-.29-.81-.14-1.62-.33-2.41-.56-.64-.18-1.46-.36-1.84-.96-.84-1.33,1.02-2.82,1.9-3.54,1.37-1.13,2.88-2,4.52-2.68,6.32-2.64,13.26-2.63,19.97-3.34,1.59-.17,3.06-.41,4.46-1.22,1.24-.72,2.32-1.72,2.28-3.27,0,.15-.87.33-.87.5h0Z"/><path class="cls-4" d="M39.43,30.16c.22.62.16,1.23-.16,1.81-.14.24-.31.46-.5.66-.12.13-.25.25-.38.36-.11.09-.93.61-.36.31-1.51.79-3.33,1.19-4.99,1.56-3.46.77-7,1.1-10.52,1.51-3.14.37-6.29.82-9.32,1.75-2.44.74-4.72,1.81-6.89,3.13-2.63,1.6-4.87,3.76-6.29,6.5.13-.25.74-.25.87-.5,1.3-2.51,3.29-4.56,5.65-6.1s5.33-2.51,8.12-3.16c6.66-1.55,13.63-1.33,20.19-3.34,1.92-.59,6.46-2.21,5.45-5,.02.05-.89.44-.87.5h0Z"/><path class="cls-4" d="M49.12,28.81c4.54,3.78,10.08,8.02,16.34,5.9,2.61-.88,4.94-2.54,7.69-3.04,2.4-.44,5.1.04,6.41,2.31,1.4,2.42.78,5.54.19,8.1.05-.22.81-.27.87-.5.54-2.34,1.07-5.02.18-7.34-.94-2.44-3.38-3.42-5.86-3.2-2.75.24-5.1,1.77-7.6,2.79-2.89,1.18-5.84,1.2-8.77.11-3.24-1.21-5.94-3.45-8.57-5.64-.09-.08-.78.57-.87.5h0Z"/><path class="cls-4" d="M52.15,32.06c2.79-1.51,5.66-2.84,8.61-3.99,1.44-.56,2.9-1.07,4.37-1.54,1.34-.42,2.71-.92,4.1-1.11,1.09-.15,2.4-.06,3.05.97s.25,2.44-.29,3.46c-1.19,2.27-3.1,4.16-4.88,5.97s-3.67,3.65-5.12,5.79c-.73,1.08-1.56,2.35-1.68,3.69s.65,2.36,1.77,2.94c1.28.66,2.76.51,4.12.19,1.52-.36,3.03-.84,4.53-1.29,3.12-.93,6.23-1.92,9.33-2.93,6.97-2.29,13.89-4.76,20.8-7.23.31-.11.56-.39.87-.5-6.18,2.21-12.37,4.42-18.59,6.5-3.09,1.03-6.19,2.04-9.31,2.99-1.56.48-3.12.94-4.69,1.4-1.48.43-3.02.96-4.59.82-1.18-.1-2.38-.68-3-1.72-.77-1.29-.2-2.75.46-3.96,1.25-2.3,3.06-4.22,4.88-6.08s3.69-3.65,5.17-5.78c.7-1.01,1.42-2.16,1.44-3.43s-.8-2.14-2-2.31c-1.4-.21-2.86.33-4.17.72-1.7.51-3.39,1.07-5.05,1.7-3.19,1.2-6.3,2.63-9.29,4.25-.26.14-.63.37-.83.48h0Z"/><ellipse class="cls-3" cx="45.95" cy="14.62" rx="7.62" ry="13.62"/><rect class="cls-1" x="70.92" y="46.82" width=".91" height=".03"/><line class="cls-2" x1="34.66" y1="33.39" x2="56.91" y2="33.39"/><path class="cls-4" d="M42.39,23.43c.7-1.02,1.45-2,2.26-2.93.13-.15.27-.31.46-.36.21-.06.43.04.63.13,1.54.74,2.91,1.82,4.01,3.14,1.02,1.23,1.79,2.66,2.77,3.92s2.25,2.4,3.8,2.72c.63.13,1.3.12,1.87-.18,1.06-.55,1.48-1.94,1.32-3.14s-.76-2.29-1.26-3.39-.92-2.32-.68-3.51c-.02,1.75,1.01,3.3,1.86,4.81s1.55,3.37.86,4.97c-.7,1.63-2.65,2.46-3.28,4.12"/><path class="cls-4" d="M42.82,23.18c.74-1.07,1.54-2.36,2.54-3.21l-.87.5c.76-.35,2.05.72,2.65,1.15.8.59,1.53,1.27,2.17,2.03,1.34,1.62,2.25,3.58,3.77,5.05,1.24,1.19,3.17,2.24,4.84,1.32.52-.28,1.09-.57,1.45-1.06.52-.7.67-1.64.56-2.49-.31-2.41-2.37-4.35-1.95-6.9l-.87.5c.03,2.95,2.66,5.01,2.97,7.88.15,1.33-.38,2.41-1.3,3.35-.82.84-1.78,1.56-2.24,2.68.1-.24.76-.25.87-.5.45-1.09,1.37-1.8,2.18-2.61.94-.95,1.51-2.03,1.36-3.41-.32-2.88-2.94-4.94-2.97-7.88,0,.17-.84.32-.87.5-.34,2.04.93,3.74,1.6,5.56.54,1.47.63,3.4-.82,4.39l.65-.38-.15.08.22-.12c-1.89.86-3.94-.56-5.16-1.93-1.34-1.5-2.22-3.35-3.55-4.85-.64-.72-1.36-1.36-2.15-1.9-.61-.42-1.67-1.28-2.41-.97-.5.21-.94.54-1.28.94-.75.88-1.45,1.81-2.11,2.76.17-.25.69-.25.87-.5h0Z"/><path class="cls-4" d="M42.44,23.29c-1.31.81-2.99.5-4.47.1-.25-.07-.51-.14-.77-.09-.44.09-.72.52-.98.9-1.83,2.69-5.07,4.33-8.28,4.2-.29-.01-.65-.08-.74-.36,1.34,2.01,3.32,3.58,5.56,4.4.89.33,1.84.55,2.61,1.11"/><path class="cls-4" d="M42.66,23.16c-.72.41-1.65.43-2.46.35-.41-.04-.81-.12-1.21-.22-.37-.09-.77-.26-1.16-.26-.43,0-.89.35-1.24.57-.51.32-.78.85-1.14,1.32-.99,1.28-2.22,2.23-3.73,2.75-.69.23-1.4.39-2.12.46-.55.05-1.65.26-1.97-.33l-.87.5c.94,1.38,2.14,2.55,3.56,3.43.69.43,1.43.77,2.2,1.04.84.3,1.68.53,2.42,1.04.13.09.75-.58.87-.5-.74-.5-1.58-.74-2.42-1.04-.77-.27-1.5-.62-2.2-1.04-1.42-.87-2.62-2.05-3.56-3.43-.01-.02-.87.5-.87.5.26.47.95.38,1.41.37.57-.02,1.13-.09,1.68-.21,1.03-.23,1.99-.63,2.9-1.15.79-.45,1.56-.91,2.25-1.5.43-.37.83-.78,1.19-1.23s.65-1.03,1.13-1.39l-.85.49c.54-.29,1.1-.01,1.64.12s1.07.22,1.61.25c.92.04,1.7-.17,2.49-.62.2-.11.4-.22.59-.34.15-.1-.13.07-.16.08h0Z"/><path class="cls-4" d="M27.32,27.73c-.55-.1-.7-.91-.39-1.39s.87-.69,1.38-.92c1.43-.64,2.73-1.57,3.82-2.72.85-.91,1.8-2.05,3.03-1.9.76.09,1.36.66,2.03,1.02.57.3,1.2.44,1.82.58.73.17,1.46.33,2.19.5"/><path class="cls-4" d="M27.75,27.48c-.38-.11-.56-.45-.55-.84,0-.48.32-.8.7-1.05l-.13.08c-.58.34,0,.05.11,0,.13-.06.26-.12.39-.19.23-.11.46-.24.69-.37.37-.21.73-.42,1.09-.64,1.23-.76,2.19-1.74,3.2-2.76.21-.22.47-.4.68-.61.17-.17-.44.11-.04.04.17-.03.31-.09.49-.1.68-.05,1.25.33,1.8.68,1.36.87,3.03,1.08,4.58,1.43.24.06.63-.55.87-.5-1.07-.24-2.17-.43-3.22-.76-.9-.28-1.57-.98-2.45-1.25-1.16-.37-2.56.62-3.37,1.39-.68.64-1.27,1.36-1.99,1.95-.8.66-1.66,1.05-2.56,1.52-.43.23-.95.47-1.31.81-.47.45-.63,1.43.15,1.67.22.07.65-.56.87-.5h0Z"/><path class="cls-4" d="M50.52,22.34c.56.35,1.18.61,1.82.76.16.04.33.07.48.16.36.22.45.71.74,1.02.17.19.42.32.67.34.41.04.82-.18,1.1-.48s.46-.7.62-1.09c.14-.33.27-.68.52-.94.16-.17.37-.28.59-.34"/><path class="cls-4" d="M50.09,22.59c.4.24.82.45,1.26.6.35.12.81.15,1.11.38s.39.62.61.9c.23.3.61.46.99.4.36-.05.68-.29.99-.46s.6-.35.83-.63c.51-.64.57-1.61,1.27-2.1l-.43.25.09-.05-.44.25c.09-.04.18-.08.27-.11.31-.09.56-.41.87-.5-.33.1-.62.3-.91.47-.31.18-.58.35-.77.67-.41.7-.53,1.51-1.24,2l.06-.04c.96-.58.39-.2-.02-.26-.19-.03-.37-.11-.52-.23-.3-.25-.39-.66-.64-.95-.28-.32-.74-.34-1.12-.47-.48-.16-.94-.37-1.37-.64-.04-.02-.39.22-.44.25s-.39.28-.43.25h0Z"/><polygon class="cls-2" points="35.7 32.75 42.44 24.25 51.48 27.41 56.08 32.75 35.7 32.75"/></g></svg>