<?xml version="1.0" encoding="UTF-8"?><svg id="Layer_2" xmlns="http://www.w3.org/2000/svg" viewBox="0 0 166.02 80.09"><defs><style>.cls-1{stroke-width:2px;}.cls-1,.cls-2{fill:#1d1d1b;stroke:#1d1d1b;stroke-miterlimit:10;}.cls-2{stroke-width:.5px;}</style></defs><g id="Layer_18"><line class="cls-1" x1="10.01" y1="78.66" x2="166.02" y2="78.66"/><line class="cls-1" x1="10.01" y1="48.72" x2="166.02" y2="48.72"/><line class="cls-1" x1="10.01" y1="18.78" x2="166.02" y2="18.78"/><path class="cls-2" d="M12.78,58.88L.39,31.57h6.04l10.04,23,19.06-23h6.29l-23.38,27.7-4,20.58h-5.72l4.07-20.96Z"/><path class="cls-2" d="M21.69,23.92c1,1.2-.05,1.08.18,2.54.13.97.33,2.81.74,3.62,1.34,2.54-.2,1.35.52,3.88-.04,1.31.92.64.34,1.65-.04,1.62.43,4.79.46,5.26.14,1.21.31,3.2.89,3.35.36.1,1.03-.35,1.51-1,.26-.4.2-1.04.44-1.36.24-.32.72-.35,1.05-.73.45-.5.05-.76.78-1.74.24-.32.83-.79,1.35-1.27.81-.72,1.86-1.99,3.92-4.47,1.73-2.1,3.44-4.14,3.8-4.59.35-.45.18-.96.05-1.62-.07-.33-.37-2.67-.74-3.62.16-2.06-.76-1.53-.32-2.58.38-.83-.4-1.12-.48-2-.06-.64-.36-1.57-.38-2.36,0-1.17-.94-1.73-.79-3.17s-.97-2.2-.86-2.88c.19-1.27-.26-1.63-.61-2.96-.24-.84-.83-1.24-.27-2.17.11-.13.62,0,1.05.13.36.1.21.37.71.27,1.32-.27.17.51,1.45.39.8-.1,1.67.45,2.9.78.58.16.85.31.81.45-.08.29-.14.82-.13,1.37.02.78-.14.82-.13,1.37-.02.93.1,1.35.18,2.23.04.71-.58.7-.13,1.37.66,1.03-.24,1.49.24,4.03.28,1.56-.03,1.86.1,2.83.14,1.21.44,4.17.66,4.22.29.08,1.28-1.29,1.77-1.94.35-.45.88-1.55,1.45-1.94,1.18-.93.48-1.51,1.13-1.88,1.29-.74,1.11-1.81,2.27-3.52.88-1.24,1.05-.73,1.36-1.58.37-1.07.51-1.03.86-1.48.26-.4.51-1.03.98-1.61.22-.25-.08-.57.36-.76,1.07.05,1.75.16,1.95.29.58.16.92.63,1.69.68.63.25.94.25,1.67.45.22.06.92.33.64.79-.47.89-1.44,1.32-1.95,2.05-.31,1.16-.72.35-1.74,1.56-.69.83-.67.75-1.28,1.29-.59.46-1.46,1.4-1.88,2.07-.25.63-1.04.11-1.94,1.43-.56.94-.98,1.06-1.43,1.56-.8.95-1.34,1.51-2.03,2.34-.8.95-2.32,2.26-2.61,3.35-.65.68-.44,1.36-.33,2.09.23,1.46.31,2.34.47,3.47.23,1.77.68,4.15,1.12,4.81.66,1.03-.67,1.92.23,3.49.53.92-.28,1.64.18,2.54-.1,1.53.79,4.88,1.3,5.02.73.19,1.26-.91,1.83-1.61,1.45-1.64,2.74-3.24,3.56-4.57.67-1.06.93-2.01,1.26-2.39.47-.58.98-.75,1.61-1.36.72-.66.3-1.4,1.68-2.2l5.79-7.95c.52-.79.32-1.78,1.38-1.96.23-.87,1.12-.71,1.1-1.5-.64-1.1,1.54-1.69,1.07-2.83,1.77-1.08.51-1.03,1.25-1.77,1.19-1.55.53-.25,1.61-2.22.19-.42.6-1.08,1-1.68.4-.9.73-2.14,1.31-2.29.59-.15,1.21.4,1.87.58.44.12,1.31.04,1.6.43,1.05.44,1.2.17,1.84.41.65.18,1.2.17,1.21.4,0,.55-.76.5-.98,1.06-.46,1.12-.63.92-1.13,1.33-.7.59-.72,1.83-1.67,1.89-.53,1.96-.7.59-1.66,2.12-.56.94-.36-.1-.95,1.22-.25.63-2.15,2.23-3.42,3.75-1.62,1.98-3.01,3.09-3.35,4.08-.65.68-.6.23-1.11.95-.5.41-.01.62-.82,1.33-.35.14-.64.92-.88,1.24-.26.4-.64.37-.96.68-.38-.02-.64.37-.27.71-.66.99-1.49,1.78-2.6,3.04-1.92,2.21-4.13,4.96-4.58,5.78-.68,1.37-1.8,2.08-2.55,3.13-.77,1.12-1.68,2.2-2.61,3.35-1.04,1.28-2.01,2.26-3.11,3.76-.57.08-1.12.4-1.63.26-.44-.12-.54-1.47-.57-1.94-.08-.88-.71-5.17-.74-5.96,0-.86-.26-1.94-.34-2.5.3-1.4-.79-.83-.37-2.98.08-.6-.64.37-.54-1.47.07-.84.4-2.07-.26-2.79-.41-.5-.46-1.76-.28-2.72-.1-.49-.14-2.37-.34-3.67-.04-.71.07-.84,0-.86-.14-.04-.48.65-.95,1.22-.69.83-1.32,1.44-2.51,2.99-1.53,1.92-2.12,2.39-2.81,3.53-1.7,1.1-.6,1.08-1.7,2.27-.87.93-3.39,4.23-4.58,5.78-.71.9-2.4,2.55-2.95,3.18-.22.25-.75.19-1.59.43-.36-.1-.55-1.71-.71-3.15-.19-1.61-.39-2.6-.7-4.94-.01-1.4.4-1.21-.55-2.87-.48-.83,0-2.02-.49-4.26-.19-.75-.65-2.51-.76-3.86-.17-1.68-.27-2.17-.38-3.53-.11-1.9-.95-2.82-.87-4.9.04-1.31-.71-3.46-.9-4.76-.41-2.83-.36-3.29-.69-4.7.98-.75.56-.63-.47-1.14.68-2.23-1.23-2.67-.71-4.63.32-1.47-.11-1.9-.3-2.65l.13-1.06c-.46-.59-.73-2.22-1.11-3.1-.14-.35-.49-2.23.68-1.37,1.95-.02,2.58.23,3.42.6,1.05.44,3.18.93,3.37,1.06.42.19-.15,2.29-.17,4.39-.1,1.53.04,3.05.78,3.79-.37,2.55-1.32,1.75-.03,3.03-.05,1.07-.55,1.49-.38,2.86.14,1.21.44,3,.5,3.95.11,1.35.22,3.25.7,3.77Z"/></g></svg>