<?xml version="1.0" encoding="UTF-8"?><svg id="Layer_2" xmlns="http://www.w3.org/2000/svg" xmlns:xlink="http://www.w3.org/1999/xlink" viewBox="0 0 1574 448.01"><defs><style>.cls-1{filter:url(#drop-shadow-8);stroke:url(#linear-gradient-10);}.cls-1,.cls-2,.cls-3,.cls-4,.cls-5,.cls-6,.cls-7,.cls-8{fill:none;stroke-miterlimit:10;stroke-width:7px;}.cls-2{filter:url(#drop-shadow-9);stroke:url(#linear-gradient-11);}.cls-3{filter:url(#drop-shadow-10);stroke:url(#linear-gradient-12);}.cls-9{filter:url(#drop-shadow-1);}.cls-10{filter:url(#drop-shadow-2);}.cls-11{fill:url(#linear-gradient-4);}.cls-12{fill:url(#linear-gradient-3);}.cls-13{fill:url(#linear-gradient-2);}.cls-14{fill:url(#linear-gradient);}.cls-4{filter:url(#drop-shadow-7);stroke:url(#linear-gradient-9);}.cls-5{filter:url(#drop-shadow-6);stroke:url(#linear-gradient-8);}.cls-6{filter:url(#drop-shadow-5);stroke:url(#linear-gradient-7);}.cls-7{filter:url(#drop-shadow-4);stroke:url(#linear-gradient-6);}.cls-8{filter:url(#drop-shadow-3);stroke:url(#linear-gradient-5);}</style><filter id="drop-shadow-1" x="0" y="-5.99" width="1571" height="454" filterUnits="userSpaceOnUse"><feOffset dx="0" dy="7"/><feGaussianBlur result="blur" stdDeviation="4"/><feFlood flood-color="#686969" flood-opacity=".25"/><feComposite in2="blur" operator="in"/><feComposite in="SourceGraphic"/></filter><linearGradient id="linear-gradient" x1="9.53" y1="145.85" x2="1561.65" y2="145.85" gradientUnits="userSpaceOnUse"><stop offset="0" stop-color="#fff"/><stop offset=".16" stop-color="#f2f2f1"/><stop offset=".32" stop-color="#fff"/><stop offset=".5" stop-color="#f2f2f1"/><stop offset=".66" stop-color="#fff"/><stop offset=".83" stop-color="#f2f2f1"/><stop offset="1" stop-color="#fff"/></linearGradient><linearGradient id="linear-gradient-2" y1="214.36" x2="1561.65" y2="214.36" xlink:href="#linear-gradient"/><filter id="drop-shadow-2" x="0" y="-5.99" width="1571" height="454" filterUnits="userSpaceOnUse"><feOffset dx="0" dy="7"/><feGaussianBlur result="blur-2" stdDeviation="4"/><feFlood flood-color="#686969" flood-opacity=".25"/><feComposite in2="blur-2" operator="in"/><feComposite in="SourceGraphic"/></filter><linearGradient id="linear-gradient-3" y1="145.85" x2="1561.65" y2="145.85" xlink:href="#linear-gradient"/><linearGradient id="linear-gradient-4" y1="214.36" x2="1561.65" y2="214.36" xlink:href="#linear-gradient"/><linearGradient id="linear-gradient-5" y1="281.06" x2="1014.52" y2="281.06" xlink:href="#linear-gradient"/><filter id="drop-shadow-3" x="0" y="196.01" width="1024" height="182" filterUnits="userSpaceOnUse"><feOffset dx="0" dy="7"/><feGaussianBlur result="blur-3" stdDeviation="4"/><feFlood flood-color="#686969" flood-opacity=".25"/><feComposite in2="blur-3" operator="in"/><feComposite in="SourceGraphic"/></filter><linearGradient id="linear-gradient-6" x1="9.54" y1="270.56" x2="673.09" y2="270.56" xlink:href="#linear-gradient"/><filter id="drop-shadow-4" x="0" y="119.01" width="682" height="318" filterUnits="userSpaceOnUse"><feOffset dx="0" dy="7"/><feGaussianBlur result="blur-4" stdDeviation="4"/><feFlood flood-color="#686969" flood-opacity=".25"/><feComposite in2="blur-4" operator="in"/><feComposite in="SourceGraphic"/></filter><linearGradient id="linear-gradient-7" x1="380.76" y1="276.27" x2="1506.55" y2="276.27" xlink:href="#linear-gradient"/><filter id="drop-shadow-5" x="371" y="119.01" width="1145" height="329" filterUnits="userSpaceOnUse"><feOffset dx="0" dy="7"/><feGaussianBlur result="blur-5" stdDeviation="4"/><feFlood flood-color="#686969" flood-opacity=".25"/><feComposite in2="blur-5" operator="in"/><feComposite in="SourceGraphic"/></filter><linearGradient id="linear-gradient-8" y1="271.23" x2="1014.52" y2="271.23" xlink:href="#linear-gradient"/><filter id="drop-shadow-6" x="0" y="188.01" width="1024" height="182" filterUnits="userSpaceOnUse"><feOffset dx="0" dy="7"/><feGaussianBlur result="blur-6" stdDeviation="4"/><feFlood flood-color="#686969" flood-opacity=".25"/><feComposite in2="blur-6" operator="in"/><feComposite in="SourceGraphic"/></filter><linearGradient id="linear-gradient-9" x1="9.54" y1="281.73" x2="673.09" y2="281.73" xlink:href="#linear-gradient"/><filter id="drop-shadow-7" x="0" y="130.01" width="682" height="318" filterUnits="userSpaceOnUse"><feOffset dx="0" dy="7"/><feGaussianBlur result="blur-7" stdDeviation="4"/><feFlood flood-color="#686969" flood-opacity=".25"/><feComposite in2="blur-7" operator="in"/><feComposite in="SourceGraphic"/></filter><linearGradient id="linear-gradient-10" x1="380.76" y1="276.02" x2="1506.55" y2="276.02" xlink:href="#linear-gradient"/><filter id="drop-shadow-8" x="371" y="119.01" width="1145" height="329" filterUnits="userSpaceOnUse"><feOffset dx="0" dy="7"/><feGaussianBlur result="blur-8" stdDeviation="4"/><feFlood flood-color="#686969" flood-opacity=".25"/><feComposite in2="blur-8" operator="in"/><feComposite in="SourceGraphic"/></filter><linearGradient id="linear-gradient-11" x1="940.1" y1="286.43" x2="1564.22" y2="286.43" xlink:href="#linear-gradient"/><filter id="drop-shadow-9" x="931" y="139.01" width="643" height="308" filterUnits="userSpaceOnUse"><feOffset dx="0" dy="7"/><feGaussianBlur result="blur-9" stdDeviation="4"/><feFlood flood-color="#686969" flood-opacity=".25"/><feComposite in2="blur-9" operator="in"/><feComposite in="SourceGraphic"/></filter><linearGradient id="linear-gradient-12" x1="331.68" y1="334.49" x2="1248.69" y2="334.49" xlink:href="#linear-gradient"/><filter id="drop-shadow-10" x="322" y="262.01" width="938" height="162" filterUnits="userSpaceOnUse"><feOffset dx="0" dy="7"/><feGaussianBlur result="blur-10" stdDeviation="4"/><feFlood flood-color="#686969" flood-opacity=".25"/><feComposite in2="blur-10" operator="in"/><feComposite in="SourceGraphic"/></filter></defs><g id="Layer_28"><g class="cls-9"><path class="cls-14" d="M13.38,0c.24,9.19,1.32,18.33,3.17,27.3,1.89,8.97,4.8,17.68,8.34,26.1.94,2.08,1.84,4.18,2.8,6.25l3.15,6.09.79,1.52.87,1.48,1.74,2.95,1.74,2.95c.6.97,1.25,1.91,1.88,2.86,4.92,7.69,10.58,14.88,16.56,21.78l4.56,5.11,4.78,4.91c.8.81,1.58,1.64,2.4,2.44l2.49,2.35c1.67,1.56,3.3,3.15,5,4.68,3.47,2.98,6.81,6.09,10.41,8.92,1.78,1.44,3.53,2.9,5.33,4.31l5.47,4.14c14.61,11.01,30.24,20.64,46.24,29.53,16.03,8.86,32.58,16.8,49.41,24.08,16.82,7.3,33.96,13.9,51.29,19.94,34.68,12.07,70.05,22.12,105.76,30.85,17.86,4.36,35.78,8.47,53.8,12.14,18.02,3.69,36.11,7.06,54.24,10.16,36.28,6.18,72.78,11.2,109.41,14.97,36.63,3.78,73.38,6.43,110.16,8.08,36.79,1.68,73.62,2.14,110.43,1.93,18.41-.18,36.81-.56,55.2-1.13,18.39-.62,36.78-1.43,55.15-2.41,36.74-2.04,73.44-4.81,110.03-8.6,18.3-1.87,36.56-4.03,54.79-6.44,18.23-2.42,36.43-5.05,54.56-8.05,18.13-3,36.23-6.21,54.27-9.74,18.04-3.52,35.98-7.47,53.86-11.68,35.76-8.41,71.16-18.36,105.85-30.33,17.34-6,34.49-12.55,51.33-19.8,16.84-7.24,33.4-15.15,49.45-23.98,16.02-8.86,31.66-18.46,46.3-29.44l5.48-4.13c1.8-1.41,3.56-2.87,5.34-4.3,3.6-2.82,6.96-5.92,10.43-8.9,1.69-1.53,3.33-3.13,5-4.69l2.49-2.35c.82-.8,1.6-1.63,2.4-2.44l4.78-4.91,4.56-5.11c5.97-6.9,11.64-14.1,16.55-21.8.62-.96,1.28-1.89,1.88-2.87l1.74-2.95,1.74-2.95.87-1.48.79-1.52,3.14-6.09c.96-2.07,1.86-4.17,2.8-6.26,3.53-8.42,6.44-17.14,8.32-26.11,1.85-8.97,2.9-18.11,3.13-27.3h.7c.05,9.23-.67,18.49-2.31,27.61-1.67,9.12-4.39,18.02-7.75,26.67-.89,2.14-1.76,4.3-2.68,6.43l-3.03,6.27-.76,1.57-.84,1.52-1.69,3.05-1.69,3.05c-.58,1.01-1.22,1.97-1.83,2.96-4.78,7.98-10.45,15.38-16.37,22.52l-4.54,5.28-4.76,5.08c-.8.84-1.58,1.7-2.4,2.53l-2.48,2.44c-1.66,1.62-3.3,3.27-4.99,4.86-3.46,3.09-6.81,6.31-10.41,9.24-1.78,1.49-3.54,3-5.33,4.47l-5.47,4.29c-14.63,11.41-30.27,21.46-46.38,30.61-32.24,18.3-66.39,32.94-101.21,45.37-17.41,6.23-35.04,11.84-52.79,17-17.75,5.16-35.62,9.87-53.58,14.2-71.9,17.18-145.11,28.04-218.55,35.21-36.73,3.58-73.55,6.11-110.41,7.66-18.43.75-36.87,1.29-55.31,1.58-18.44.26-36.88.33-55.32.19-18.44-.16-36.87-.52-55.3-1.07-9.21-.32-18.42-.63-27.63-1.04-9.21-.34-18.41-.82-27.62-1.27-36.81-1.95-73.58-4.6-110.27-8.19l-13.76-1.36-13.75-1.44c-9.16-1.02-18.32-2.05-27.47-3.18-18.3-2.2-36.59-4.61-54.82-7.4-36.47-5.54-72.8-12.17-108.78-20.48-17.98-4.2-35.89-8.72-53.64-13.85-17.76-5.09-35.4-10.63-52.82-16.82-17.43-6.17-34.67-12.9-51.61-20.34-16.93-7.47-33.55-15.68-49.68-24.79-16.12-9.12-31.78-19.14-46.44-30.52l-5.48-4.28c-1.8-1.46-3.56-2.97-5.34-4.46-3.6-2.92-6.97-6.13-10.43-9.22-1.69-1.59-3.32-3.24-4.99-4.86l-2.48-2.44c-.82-.82-1.6-1.69-2.4-2.53l-4.76-5.08-4.54-5.29c-5.93-7.15-11.59-14.55-16.37-22.54-.61-.99-1.25-1.96-1.83-2.96l-1.69-3.05-1.69-3.05-.84-1.52-.76-1.57-3.03-6.27c-.92-2.13-1.78-4.29-2.68-6.43-3.36-8.65-6.08-17.56-7.74-26.68-1.63-9.13-2.33-18.38-2.26-27.62h.7Z"/><path class="cls-13" d="M13.38,226.62c.24,9.26,1.33,18.48,3.31,27.48l1.66,6.71,2.1,6.58c.32,1.11.75,2.18,1.18,3.24l1.27,3.21c.44,1.06.81,2.15,1.3,3.19l1.48,3.12c3.95,8.3,8.68,16.24,14.31,23.5,5.6,7.27,11.76,14.12,18.47,20.39,6.78,6.21,13.93,11.99,21.46,17.29,1.87,1.34,3.82,2.57,5.72,3.86l2.87,1.92c.97.62,1.96,1.21,2.94,1.81l5.89,3.6,6.02,3.38,3.01,1.69,3.07,1.59,6.14,3.17,6.24,2.97,3.12,1.48,3.16,1.4,6.33,2.78c2.11.92,4.27,1.75,6.4,2.63,4.25,1.79,8.58,3.38,12.9,5,17.3,6.42,35.03,11.69,52.94,16.25,17.9,4.58,36.01,8.4,54.22,11.62,36.44,6.42,73.26,10.7,110.19,13.59,36.94,2.89,74.01,4.38,111.1,4.63,18.55.12,37.1-.05,55.65-.47,18.55-.47,37.09-1.27,55.61-2.31,18.53-1.08,37.04-2.39,55.52-4.03,18.49-1.62,36.96-3.45,55.39-5.61,9.22-1.04,18.43-2.21,27.63-3.35,9.2-1.23,18.39-2.45,27.57-3.79,18.37-2.63,36.71-5.45,55-8.52,36.6-6.12,73.03-13.19,109.29-20.94,36.26-7.77,72.36-16.32,108.21-25.76,17.92-4.75,35.78-9.71,53.57-14.9,17.78-5.23,35.49-10.71,53.11-16.44,35.23-11.48,70.14-23.93,104.51-37.73,34.38-13.75,68.2-28.91,101.12-45.81,16.45-8.46,32.65-17.41,48.49-26.94,15.84-9.52,31.34-19.62,46.29-30.48,14.93-10.88,29.37-22.43,42.94-34.94,13.48-12.59,26.16-26.09,37.25-40.83l4.07-5.59,1.02-1.4.96-1.44,1.91-2.88c2.62-3.79,4.93-7.78,7.34-11.71,1.16-1.99,2.22-4.04,3.33-6.05l1.65-3.04,1.5-3.11c.98-2.09,2.05-4.13,2.95-6.25l2.67-6.38c3.32-8.6,6.1-17.43,7.97-26.48,1.8-9.06,2.86-18.27,3.09-27.53h.7c.05,9.31-.68,18.63-2.27,27.83-1.65,9.19-4.23,18.19-7.38,26.99l-2.54,6.53c-.86,2.17-1.89,4.27-2.83,6.41l-1.44,3.2-1.59,3.12c-1.08,2.07-2.1,4.18-3.22,6.23-2.33,4.05-4.58,8.16-7.18,12.05l-1.89,2.96-.95,1.48-1,1.44-4.02,5.74c-10.96,15.15-23.55,29.06-36.96,42.06-13.5,12.91-27.86,24.89-42.82,36.05-29.91,22.35-61.95,41.65-94.91,59.01-16.48,8.7-33.24,16.85-50.17,24.6-16.93,7.75-34.05,15.1-51.29,22.12-69.1,27.81-140.3,49.99-212.32,68.51-36.02,9.24-72.28,17.57-108.73,24.89-18.22,3.7-36.5,7.08-54.81,10.28-18.3,3.22-36.66,6.17-55.03,8.94-36.74,5.62-73.62,10.24-110.55,14.24-9.23,1.02-18.48,1.9-27.72,2.85-9.25.87-18.49,1.76-27.75,2.52-18.51,1.56-37.03,3.05-55.57,4.17-37.08,2.37-74.21,3.96-111.39,4.41-18.59.24-37.18.1-55.77-.33-18.59-.45-37.18-1.18-55.75-2.39-18.56-1.26-37.12-2.87-55.6-5.09-18.49-2.19-36.93-4.86-55.27-8.21-36.64-6.69-73.03-15.59-107.97-28.89-4.36-1.68-8.72-3.34-13.02-5.19-2.15-.91-4.32-1.77-6.45-2.73l-6.38-2.91-3.18-1.46-3.14-1.55-6.29-3.11-6.19-3.31-3.09-1.66-3.04-1.76-6.07-3.53-5.94-3.75c-.99-.63-1.98-1.24-2.96-1.89l-2.89-2c-1.92-1.35-3.88-2.63-5.76-4.03-7.56-5.54-14.75-11.59-21.53-18.06-6.72-6.55-12.92-13.64-18.42-21.24-5.55-7.57-10.17-15.8-13.96-24.36l-1.42-3.21c-.48-1.07-.82-2.19-1.24-3.29l-1.2-3.3c-.41-1.1-.81-2.19-1.11-3.33l-1.96-6.74-1.5-6.85c-1.76-9.18-2.47-18.52-2.4-27.82h.7Z"/></g><g class="cls-10"><path class="cls-12" d="M1558.5,0c.07,9.23-.63,18.49-2.26,27.62-1.66,9.12-4.38,18.03-7.74,26.68-.89,2.14-1.76,4.3-2.68,6.43l-3.03,6.27-.76,1.57-.84,1.52-1.69,3.05-1.69,3.05c-.58,1.01-1.22,1.97-1.83,2.96-4.77,7.99-10.44,15.39-16.37,22.54l-4.54,5.29-4.76,5.08c-.8.84-1.58,1.71-2.4,2.53l-2.48,2.44c-1.66,1.62-3.3,3.27-4.99,4.86-3.46,3.1-6.83,6.3-10.43,9.22-1.78,1.48-3.54,3-5.34,4.46l-5.48,4.28c-14.66,11.39-30.32,21.4-46.44,30.52-16.13,9.11-32.75,17.32-49.68,24.79-16.94,7.44-34.18,14.17-51.61,20.34-17.42,6.19-35.06,11.73-52.82,16.82-17.75,5.13-35.67,9.65-53.64,13.85-35.98,8.31-72.31,14.94-108.78,20.48-18.23,2.78-36.52,5.2-54.82,7.4-9.15,1.13-18.31,2.16-27.47,3.18l-13.75,1.44-13.76,1.36c-36.69,3.59-73.46,6.24-110.27,8.19-9.2.45-18.41.93-27.62,1.27-9.21.42-18.42.72-27.63,1.04-18.43.56-36.86.91-55.3,1.07-18.44.14-36.88.07-55.32-.19-18.44-.28-36.88-.82-55.31-1.58-36.86-1.56-73.68-4.09-110.41-7.66-73.44-7.17-146.65-18.02-218.55-35.21-17.96-4.33-35.83-9.04-53.58-14.2-17.75-5.16-35.37-10.77-52.79-17-34.82-12.43-68.97-27.07-101.21-45.37-16.1-9.15-31.74-19.2-46.38-30.61l-5.47-4.29c-1.8-1.47-3.56-2.98-5.33-4.47-3.6-2.93-6.95-6.15-10.41-9.24-1.69-1.59-3.32-3.24-4.99-4.86l-2.48-2.44c-.82-.82-1.6-1.69-2.4-2.53l-4.76-5.08-4.54-5.28c-5.93-7.14-11.6-14.54-16.37-22.52-.61-.99-1.25-1.96-1.83-2.96l-1.69-3.05-1.69-3.05-.84-1.52-.76-1.57-3.03-6.27c-.92-2.13-1.79-4.29-2.68-6.43-3.37-8.64-6.08-17.55-7.75-26.67-1.64-9.12-2.36-18.37-2.31-27.61h.7c.23,9.19,1.28,18.33,3.13,27.3,1.88,8.97,4.79,17.69,8.32,26.11.94,2.09,1.84,4.18,2.8,6.26l3.14,6.09.79,1.52.87,1.48,1.74,2.95,1.74,2.95c.6.97,1.25,1.91,1.88,2.87,4.92,7.7,10.58,14.9,16.55,21.8l4.56,5.11,4.78,4.91c.8.81,1.58,1.65,2.4,2.44l2.49,2.35c1.67,1.56,3.3,3.16,5,4.69,3.47,2.98,6.82,6.08,10.43,8.9,1.78,1.43,3.54,2.89,5.34,4.3l5.48,4.13c14.63,10.99,30.28,20.58,46.3,29.44,16.05,8.83,32.6,16.74,49.45,23.98,16.84,7.25,33.99,13.81,51.33,19.8,34.7,11.97,70.09,21.93,105.85,30.33,17.88,4.21,35.82,8.16,53.86,11.68,18.03,3.53,36.13,6.74,54.27,9.74,18.14,3,36.33,5.64,54.56,8.05,18.23,2.41,36.49,4.58,54.79,6.44,36.59,3.79,73.28,6.57,110.03,8.6,18.37.98,36.76,1.79,55.15,2.41,18.39.58,36.8.96,55.2,1.13,36.81.21,73.64-.25,110.43-1.93,36.79-1.64,73.53-4.29,110.16-8.08,36.63-3.77,73.13-8.79,109.41-14.97,18.14-3.1,36.23-6.47,54.24-10.16,18.02-3.67,35.95-7.79,53.8-12.14,35.7-8.73,71.08-18.79,105.76-30.85,17.33-6.05,34.47-12.65,51.29-19.94,16.83-7.27,33.38-15.22,49.41-24.08,16-8.89,31.63-18.52,46.24-29.53l5.47-4.14c1.79-1.42,3.55-2.88,5.33-4.31,3.6-2.82,6.94-5.94,10.41-8.92,1.7-1.53,3.33-3.12,5-4.68l2.49-2.35c.82-.79,1.6-1.63,2.4-2.44l4.78-4.91,4.56-5.11c5.97-6.89,11.64-14.09,16.56-21.78.62-.96,1.28-1.89,1.88-2.86l1.74-2.95,1.74-2.95.87-1.48.79-1.52,3.15-6.09c.96-2.07,1.87-4.17,2.8-6.25,3.53-8.42,6.45-17.13,8.34-26.1,1.85-8.97,2.93-18.1,3.17-27.3h.7Z"/><path class="cls-11" d="M1558.5,226.62c.07,9.31-.64,18.64-2.4,27.82l-1.5,6.85-1.96,6.74c-.3,1.13-.7,2.23-1.11,3.33l-1.2,3.3c-.42,1.09-.77,2.22-1.24,3.29l-1.42,3.21c-3.79,8.56-8.41,16.79-13.96,24.36-5.5,7.6-11.7,14.69-18.42,21.24-6.79,6.47-13.97,12.52-21.53,18.06-1.88,1.4-3.84,2.68-5.76,4.03l-2.89,2c-.98.65-1.97,1.26-2.96,1.89l-5.94,3.75-6.07,3.53-3.04,1.76-3.09,1.66-6.19,3.31-6.29,3.11-3.14,1.55-3.18,1.46-6.38,2.91c-2.13.96-4.3,1.82-6.45,2.73-4.29,1.85-8.66,3.51-13.02,5.19-34.94,13.3-71.33,22.2-107.97,28.89-18.33,3.35-36.78,6.02-55.27,8.21-18.49,2.23-37.04,3.83-55.6,5.09-18.57,1.21-37.16,1.94-55.75,2.39-18.59.42-37.19.57-55.77.33-37.17-.45-74.31-2.04-111.39-4.41-18.54-1.12-37.06-2.61-55.57-4.17-9.26-.76-18.5-1.66-27.75-2.52-9.24-.95-18.49-1.83-27.72-2.85-36.93-4-73.81-8.62-110.55-14.24-18.37-2.78-36.72-5.72-55.03-8.94-18.31-3.2-36.59-6.58-54.81-10.28-36.45-7.32-72.71-15.64-108.73-24.89-72.02-18.52-143.22-40.7-212.32-68.51-17.25-7.01-34.36-14.36-51.29-22.12-16.93-7.75-33.69-15.9-50.17-24.6-32.96-17.36-65.01-36.66-94.91-59.01-14.96-11.15-29.32-23.14-42.82-36.05-13.41-13-25.99-26.91-36.96-42.06l-4.02-5.74-1-1.44-.95-1.48-1.89-2.96c-2.6-3.89-4.84-8-7.18-12.05-1.13-2.05-2.15-4.15-3.22-6.23l-1.59-3.12-1.44-3.2c-.94-2.14-1.97-4.24-2.83-6.41l-2.54-6.53c-3.14-8.8-5.73-17.8-7.38-26.99-1.58-9.2-2.32-18.52-2.27-27.83h.7c.23,9.27,1.29,18.47,3.09,27.53,1.86,9.05,4.65,17.88,7.97,26.48l2.67,6.38c.9,2.12,1.97,4.17,2.95,6.25l1.5,3.11,1.65,3.04c1.12,2.02,2.17,4.06,3.33,6.05,2.41,3.93,4.71,7.92,7.34,11.71l1.91,2.88.96,1.44,1.02,1.4,4.07,5.59c11.09,14.74,23.77,28.24,37.25,40.83,13.57,12.51,28.02,24.06,42.94,34.94,14.94,10.86,30.44,20.96,46.29,30.48,15.84,9.54,32.04,18.48,48.49,26.94,32.92,16.9,66.74,32.06,101.12,45.81,34.37,13.79,69.28,26.24,104.51,37.73,17.62,5.73,35.33,11.21,53.11,16.44,17.79,5.2,35.65,10.16,53.57,14.9,35.86,9.44,71.95,17.98,108.21,25.76,36.27,7.75,72.7,14.82,109.29,20.94,18.3,3.08,36.64,5.89,55,8.52,9.18,1.34,18.38,2.56,27.57,3.79,9.21,1.14,18.41,2.31,27.63,3.35,18.43,2.17,36.9,3.99,55.39,5.61,18.49,1.63,37,2.95,55.52,4.03,18.53,1.04,37.07,1.83,55.61,2.31,18.55.42,37.1.59,55.65.47,37.09-.25,74.16-1.74,111.1-4.63,36.93-2.89,73.75-7.17,110.19-13.59,18.21-3.22,36.32-7.04,54.22-11.62,17.91-4.56,35.64-9.83,52.94-16.25,4.32-1.62,8.65-3.21,12.9-5,2.13-.88,4.28-1.72,6.4-2.63l6.33-2.78,3.16-1.4,3.12-1.48,6.24-2.97,6.14-3.17,3.07-1.59,3.01-1.69,6.02-3.38,5.89-3.6c.98-.61,1.97-1.19,2.94-1.81l2.87-1.92c1.9-1.29,3.85-2.53,5.72-3.86,7.52-5.29,14.68-11.08,21.46-17.29,6.71-6.27,12.87-13.12,18.47-20.39,5.63-7.26,10.36-15.2,14.31-23.5l1.48-3.12c.5-1.04.86-2.13,1.3-3.19l1.27-3.21c.43-1.07.86-2.14,1.18-3.24l2.1-6.58,1.66-6.71c1.98-9.01,3.07-18.22,3.31-27.48h.7Z"/></g><path class="cls-8" d="M13.03,201.76c0,252.68,936.25,52.21,998.48,156.82"/><path class="cls-7" d="M13.03,124.28c20.9,273.41,656.57,113.1,656.57,292.83"/><path class="cls-6" d="M383.86,428.01C598.27,14.75,1337.78,515.43,1503.33,124.28"/><path class="cls-5" d="M13.03,350.53c0-252.68,936.25-52.21,998.48-156.82"/><path class="cls-4" d="M13.03,428.01c20.9-273.41,656.57-113.1,656.57-292.83"/><path class="cls-1" d="M383.86,124.28c214.41,413.26,953.91-87.42,1119.47,303.74"/><path class="cls-2" d="M1560.72,144.86c0,169.75-617.12,113.41-617.12,283.16"/><path class="cls-3" d="M335.48,268.18c-22.15-16.1,1183.19,286.54,852.12,28.91"/></g></svg>