<?xml version="1.0" encoding="UTF-8"?><svg id="Layer_2" xmlns="http://www.w3.org/2000/svg" viewBox="0 0 70 84.29"><defs><style>.cls-1,.cls-2{fill:#969fa0;}.cls-2{stroke:#969fa0;}.cls-2,.cls-3{stroke-miterlimit:10;}.cls-3{fill:#fff;stroke:#fff;}</style></defs><g id="Layer_14"><line class="cls-3" x1=".5" y1="83.79" x2="69.5" y2="83.79"/><path class="cls-3" d="M.5,79.79c0-53.59,69-51.62,69,0"/><path class="cls-2" d="M16.9,38.99c1.22-3.13,4.24-6.22,5.24-7.19,3-2.91,3.8,3.1,11.26,3.1,9.94,0,10.92-11.46,19.5,4.1,2.99,5.42-8.06,10.84-18,10.84s-20.22-5.16-18-10.84Z"/><path class="cls-1" d="M18.28,39.87c-3.45,4.5-5.84,9.86-6.58,15.49s.18,11.5,2.86,16.5c1.27,2.37,2.99,4.59,5.34,5.9"/><path class="cls-1" d="M17.84,40.12c-3.31,4.34-5.65,9.44-6.49,14.85s-.1,11.33,2.37,16.35c1.31,2.66,3.12,5.18,5.74,6.68.15.09.73-.58.87-.5-2.3-1.32-3.98-3.43-5.24-5.72-1.33-2.42-2.24-5.05-2.74-7.76-1.02-5.47-.33-11.14,1.73-16.29,1.16-2.9,2.74-5.62,4.63-8.11-.18.24-.68.25-.87.5h0Z"/><path class="cls-1" d="M19.68,44.11c-1.2,1.59-1.29,3.75-1.17,5.74.31,4.98,1.84,10.26,5.78,13.33,1.01.79,2.15,1.4,3.28,2.01.83.45,1.66.9,2.5,1.35"/><path class="cls-1" d="M19.25,44.36c-1.08,1.49-1.26,3.35-1.2,5.13s.29,3.47.68,5.15c.77,3.25,2.28,6.44,4.91,8.6,1.79,1.46,3.97,2.45,6,3.54.16.09.72-.58.87-.5-1.82-.98-3.73-1.88-5.41-3.09-1.39-1-2.53-2.3-3.42-3.77-1.76-2.92-2.5-6.37-2.72-9.73-.13-2-.06-4.14,1.16-5.83-.18.24-.69.25-.87.5h0Z"/><path class="cls-1" d="M19.82,77.7c.87.25,1.73-.34,2.42-.93,3.23-2.79,5.78-6.35,7.4-10.29"/><path class="cls-1" d="M19.39,77.95c.99.23,2.08-.51,2.85-1.08,1.18-.87,2.22-1.99,3.18-3.1,1.95-2.24,3.51-4.8,4.65-7.54-.1.24-.76.25-.87.5-.95,2.29-2.19,4.44-3.71,6.4-.74.95-1.54,1.86-2.4,2.7-.44.43-.89.86-1.36,1.25-.31.26-.26.27-.54.35-.32.1-.62.1-.94.02-.24-.06-.63.55-.87.5h0Z"/><path class="cls-1" d="M18.19,49.5c-.32-.42-.31-1-.27-1.52.11-1.28.32-2.55.63-3.8-.31,1.21-.31,2.5-.01,3.72.04-1.61.4-3.22,1.06-4.69"/><path class="cls-1" d="M18.62,49.25c-.49-.69-.26-1.7-.16-2.48.12-.96.3-1.91.53-2.84l-.87.5c-.3,1.23-.31,2.49-.01,3.72,0-.02.4-.23.44-.25.05-.03.43-.19.43-.25.05-1.62.41-3.21,1.06-4.69-.03.08-.36.2-.44.25-.09.05-.39.15-.43.25-.65,1.48-1.01,3.07-1.06,4.69l.87-.5c-.29-1.23-.29-2.49.01-3.72-.02.06-.37.21-.44.25-.07.04-.41.17-.43.25-.23.94-.41,1.89-.53,2.84-.1.78-.33,1.79.16,2.48.02.03.85-.52.87-.5h0Z"/><path class="cls-1" d="M17.89,55.46c-.24-.16-.48-.53-.23-.68,1.91,3.66,3.79,7.34,5.64,11.04-1.09-.91-1.74-2.23-2.31-3.54-1.19-2.72-2.13-5.55-2.82-8.44,2.19,4.42,4.38,8.84,6.57,13.26-1.45-3.17-3.13-6.23-5.02-9.16,1.23,3.77,2.45,7.54,3.68,11.3-2.04-3.43-3.6-7.14-4.62-11,1.12,4.64,2.24,9.29,2.7,14.04-.92-4.39-1.84-8.78-2.76-13.18-.09-.43.09-1.11.5-.94.14.06.21.2.27.33.77,1.66,1.04,3.5,1.19,5.32.24,2.88.19,5.78-.15,8.65.35-2.67-.19-5.45-1.53-7.79-.03,3.32.58,6.64,1.78,9.74-.44-4.21-.94-8.41-1.5-12.6-.26,4.14.19,8.32,1.33,12.31,1.02-4.2-.57-8.89,1.23-12.82,0,3.25-.36,6.51-1.08,9.68.36.18.81,0,1.08-.29s.38-.7.47-1.09c.57-2.4.66-4.91.26-7.34-.68,3.09-1.14,6.24-1.38,9.4.94-3.14,1.88-6.33,1.81-9.61-.19,2.99-.38,5.97-.57,8.96.15-2.04.3-4.09.44-6.13.06-.8.07-1.73-.52-2.28.61,2.07,1.65,4.02,3.04,5.67-.69-2.08-1.62-4.09-2.77-5.96,1.65,1.46,3.12,3.13,4.35,4.97-1.56-1.27-2.82-2.9-3.64-4.74.49-.2,1.01.19,1.39.57,1.06,1.06,2.02,2.21,2.87,3.44-.18-.83-.65-1.59-1.31-2.12.69,1.46.65,3.24-.11,4.66.81-1.02,1.14-2.4.9-3.67-.07.75.3,1.46.4,2.2s-.26,1.69-1.01,1.72c1.03-.81,1.58-2.18,1.4-3.47.46,1.02.19,2.33-.64,3.08.6-.91,1.14-1.86,1.63-2.84.11.91-.32,1.86-1.08,2.37.67-.6,1.01-1.54.9-2.44.1.33.1.7,0,1.03-.31-.49-.29-1.18.06-1.65"/><path class="cls-1" d="M18.33,55.21c-.21-.17-.47-.44-.23-.68l-.87.5c1.91,3.66,3.79,7.34,5.64,11.04l.87-.5c-1.57-1.38-2.33-3.48-3.07-5.38-.84-2.15-1.52-4.35-2.06-6.6l-.87.5c2.19,4.42,4.38,8.84,6.57,13.26,0-.02.88-.47.87-.5-1.46-3.17-3.14-6.23-5.02-9.16,0,0-.88.47-.87.5,1.23,3.77,2.45,7.54,3.68,11.3l.87-.5c-2.03-3.44-3.59-7.14-4.62-11,.02.08-.89.41-.87.5,1.12,4.64,2.23,9.29,2.7,14.04l.87-.5c-.52-2.48-1.04-4.96-1.56-7.44-.26-1.22-.51-2.44-.77-3.66-.13-.61-.26-1.22-.38-1.83-.07-.37-.18-.93.21-1.18l-.85.49c.46-.08.63.64.76.97.22.57.38,1.15.52,1.75.27,1.24.39,2.52.47,3.78.16,2.6.09,5.22-.21,7.81.02-.19.84-.3.87-.5.33-2.7-.2-5.42-1.53-7.79.02.03-.87.42-.87.5-.01,3.33.59,6.62,1.78,9.74-.02-.06.88-.4.87-.5-.44-4.21-.94-8.41-1.5-12.6.02.13-.86.34-.87.5-.25,4.15.2,8.31,1.33,12.31-.02-.09.84-.38.87-.5.98-4.21-.56-8.76,1.23-12.82l-.87.5c0,1.91-.12,3.81-.37,5.7-.12.94-.28,1.88-.47,2.82-.05.23-.1.47-.15.7-.06.26-.19.4.05.52.23.11.55-.07.75-.18.37-.2.84-.41,1.1-.75.51-.66.58-1.74.7-2.54.29-1.93.27-3.89-.03-5.82.02.12-.83.35-.87.5-.67,3.1-1.13,6.23-1.38,9.4.01-.19.81-.3.87-.5.94-3.13,1.86-6.31,1.81-9.61,0,.16-.85.32-.87.5-.19,2.99-.38,5.97-.57,8.96.01-.18.85-.31.87-.5.12-1.59.23-3.19.35-4.78.08-1.13.46-2.7-.42-3.62-.02-.02-.87.48-.87.5.63,2.08,1.65,4,3.04,5.67,0,.01.87-.48.87-.5-.7-2.09-1.63-4.08-2.77-5.96l-.87.5c1.65,1.47,3.11,3.13,4.35,4.97l.87-.5c-1.56-1.29-2.8-2.9-3.64-4.74l-.87.5c.95-.25,1.76.93,2.31,1.54.7.78,1.34,1.6,1.94,2.46,0,0,.88-.46.87-.5-.21-.85-.65-1.56-1.31-2.12-.04-.03-.86.51-.87.5.68,1.5.64,3.19-.11,4.66.12-.24.7-.27.87-.5.8-1.06,1.12-2.36.9-3.67.02.12-.86.35-.87.5-.05,1.19,1.07,2.9-.21,3.8l.85-.49c-.21.1-.46.24-.24,0,.12-.14.27-.26.39-.4.22-.26.4-.55.55-.86.3-.66.4-1.37.33-2.09l-.87.5c.44,1.07.19,2.27-.64,3.08l.87-.5c.59-.92,1.14-1.86,1.63-2.84l-.87.5c.08.95-.31,1.81-1.08,2.37l.87-.5c.67-.65.98-1.5.9-2.44l-.87.5c.09.36.08.67,0,1.03l.87-.5c-.3-.55-.28-1.13.06-1.65-.16.25-.7.25-.87.5-.34.52-.36,1.11-.06,1.65-.02-.03.84-.41.87-.5.09-.36.09-.67,0-1.03.02.1-.88.38-.87.5.08.93-.23,1.78-.9,2.44.22-.22.61-.31.87-.5.77-.56,1.16-1.42,1.08-2.37.01.12-.79.36-.87.5-.49.98-1.04,1.92-1.63,2.84.15-.24.66-.3.87-.5.83-.81,1.08-2,.64-3.08.02.06-.88.41-.87.5.1.94-.11,1.87-.65,2.66-.11.15-.22.3-.35.44-.11.12-.58.4-.27.36.2-.02.41-.19.58-.28.51-.29.94-.54,1.1-1.15.27-1-.39-1.97-.35-2.97l-.87.5c.22,1.31-.09,2.61-.9,3.67l.87-.5c.75-1.47.79-3.16.11-4.66l-.87.5c.67.57,1.1,1.28,1.31,2.12l.87-.5c-.6-.86-1.25-1.68-1.94-2.46-.55-.61-1.36-1.8-2.31-1.54-.09.02-.87.49-.87.5.85,1.84,2.08,3.45,3.64,4.74.06.05.84-.54.87-.5-1.24-1.83-2.69-3.5-4.35-4.97-.05-.04-.85.53-.87.5,1.14,1.88,2.07,3.88,2.77,5.96l.87-.5c-1.39-1.68-2.41-3.59-3.04-5.67l-.87.5c.87.92.5,2.49.42,3.62-.12,1.59-.23,3.19-.35,4.78l.87-.5c.19-2.99.38-5.97.57-8.96l-.87.5c.05,3.3-.87,6.48-1.81,9.61l.87-.5c.24-3.16.7-6.3,1.38-9.4l-.87.5c.24,1.53.31,3.09.18,4.64-.07.75-.18,1.5-.33,2.24-.14.65-.26,1.37-.84,1.78l.85-.49c-.15.08-.45.19-.64.12-.25-.1-.11-.28-.05-.52.08-.39.16-.78.24-1.17.17-.9.31-1.8.42-2.7.22-1.77.32-3.56.32-5.34,0,.16-.79.33-.87.5-1.8,4.06-.25,8.6-1.23,12.82l.87-.5c-1.13-4-1.58-8.16-1.33-12.31l-.87.5c.56,4.19,1.06,8.4,1.5,12.6l.87-.5c-1.19-3.11-1.79-6.4-1.78-9.74l-.87.5c1.33,2.37,1.86,5.09,1.53,7.79l.87-.5c.25-2.15.34-4.32.27-6.48s-.2-4.22-.83-6.21c-.14-.44-.42-1.82-1.08-1.56-.37.14-.92.43-1.03.83s.03.8.11,1.18l.36,1.71c.23,1.1.46,2.2.69,3.29.53,2.52,1.06,5.04,1.58,7.56-.02-.11.88-.37.87-.5-.47-4.76-1.58-9.41-2.7-14.04l-.87.5c1.04,3.86,2.59,7.56,4.62,11,0-.01.88-.46.87-.5-1.23-3.77-2.45-7.54-3.68-11.3l-.87.5c1.88,2.94,3.56,6,5.02,9.16l.87-.5c-2.19-4.42-4.38-8.84-6.57-13.26.02.03-.88.44-.87.5.54,2.24,1.23,4.45,2.06,6.6.74,1.9,1.5,4,3.07,5.38.04.04.86-.52.87-.5-1.85-3.7-3.73-7.38-5.64-11.04,0,.01-.8.44-.87.5-.23.24.03.51.23.68.1.08.78-.57.87-.5h0Z"/><path class="cls-1" d="M27.26,65.44l.73.64c.11.09.24.19.37.15.05-.02.1-.06.15-.07.1-.04.21,0,.29.08s.13.17.17.26c0,.07-.13.07-.14,0,.15.02.32.04.44.13.03-.02.06-.05.08-.07l.02.08-.08-.12-.09.09c0-.06-.03-.11-.07-.15"/><path class="cls-1" d="M26.82,65.69l.52.46c.14.12.32.34.51.34.12,0,.25-.1.34-.16.07-.04.15-.08.22-.13l-.35.2h.03s.08-.01.12,0c.09.03.16.1.22.17.03.05.13.16.07.21l.87-.5s-.1.01-.11-.04l-.87.5c.16.02.31.04.44.13,0,0,.14-.08.13-.07.1-.06.2-.12.31-.18.14-.08.31-.15.43-.25.03-.02.06-.05.08-.07l-.87.5.02.08.87-.5-.08-.12s-.81.44-.87.5l-.09.09.87-.5c-.01-.06-.03-.11-.07-.15,0-.01-.4.23-.44.25s-.43.26-.43.25c.04.05.06.09.07.15,0,0,.15-.08.13-.07.1-.06.2-.12.31-.18s.2-.12.31-.18c.04-.02.09-.04.13-.08l.09-.09-.87.5.08.12s.4-.23.44-.25c.1-.06.2-.12.31-.18.01,0,.13-.07.13-.08l-.02-.08s-.4.23-.44.25c-.14.08-.31.15-.43.25-.03.02-.06.05-.08.07l.87-.5c-.13-.09-.29-.11-.44-.13-.02,0-.13.07-.13.07-.1.06-.2.12-.31.18s-.2.12-.31.18c-.01,0-.13.07-.13.08.03.12.19,0,.24-.03.18-.1.35-.2.53-.3.06-.04.14-.07.2-.12.01,0,.03-.01.03-.03.03-.07-.12-.24-.17-.29-.09-.08-.21-.12-.32-.07-.09.04-.17.09-.25.14-.05.03-.11.06-.16.09-.17.1-.08.04.29-.17-.03,0-.05.01-.08,0-.13,0-.23-.11-.32-.19-.23-.2-.46-.41-.69-.61,0,0-.15.08-.13.07-.1.06-.2.12-.31.18s-.2.12-.31.18c-.01,0-.12.08-.13.08h0Z"/><path class="cls-1" d="M23.47,66.08c.48,1.6.25,3.4-.61,4.83.7-1.16.94-2.55.95-3.9,0-.94-.1-1.91-.55-2.74.29,2.2-.17,4.49-1.3,6.4-.34.58-.76,1.19-.7,1.86.24-.4.38-.84.53-1.28.64-1.95,1.39-3.86,2.25-5.72.1.49-.03.99-.17,1.47-.57,1.92-1.36,3.77-2.04,5.65-.05.13-.07.32.06.37.31-.49.52-1.03.72-1.57.72-1.9,1.45-3.79,2.17-5.69-.89,2.2-1.75,4.42-2.22,6.75,1.29-2.23,2.03-4.72,2.77-7.19-.81,2.18-1.62,4.38-2.03,6.67-.06.34-.11.71,0,1.04.31-.12.48-.45.6-.77.22-.58.39-1.19.55-1.79.35-1.29.7-2.59,1.05-3.88.08-.3.17-.61.16-.93-.16.12-.22.32-.28.5-.66,2.14-1.32,4.28-1.81,6.46.72-.94,1.25-2.03,1.54-3.18.28-1.09.35-2.23.76-3.28-.46,2.23-1.15,4.42-2.07,6.51,1.22-1.31,1.7-3.13,2.15-4.86.09-.36.18-.72.17-1.09-.43,2.05-.88,4.14-1.95,5.95.28-.44.57-.88.81-1.34.63-1.23.94-2.63,1.66-3.81-.35,1.53-.97,2.99-1.6,4.42.86-1.35,1.6-2.78,2.19-4.27-.62,1.17-1.12,2.39-1.51,3.65.18.04.32-.16.41-.32.5-1.02,1-2.04,1.5-3.06-.12.67-.55,1.23-.96,1.77.62-.67,1.16-1.43,1.59-2.24-.9,1.52-2.25,2.76-3.84,3.54-.36.18-.74.33-1.03.62-.22.22-.36.49-.5.76-.25.47-.49.94-.74,1.42-.13.25-.3.53-.58.55.28-1.12.44-2.28.47-3.44-.22,1.09-.44,2.18-.66,3.26-.04.2-.09.42-.23.58.1-1.17.17-2.34.19-3.51-.28,1.38-.49,2.78-.65,4.18.11-.74.23-1.49.34-2.23.03-.19.05-.41-.07-.57-.21.08-.25.36-.25.59-.02.85-.03,1.7-.05,2.55.05-.93,0-1.87-.16-2.8.01.99.03,1.97.04,2.96.5-.74,1.02-1.45,1.57-2.15l-.79,1.31c.25-.74.68-1.43,1.24-1.98-.25.88-.56,1.75-.93,2.58.33-.11.4-.54.42-.89.05-.69.18-1.38.37-2.04.15-.52.35-1.06.23-1.59-.26,1.51-.47,3.02-.63,4.54.41-1.09.82-2.17,1.24-3.26-.18.68-.37,1.36-.55,2.05.38-.77.84-1.5,1.35-2.18-.22.55-.45,1.11-.67,1.66.25-.66.56-1.29.91-1.9-.25.54-.62,1-.98,1.47-.58.74-1.17,1.47-1.75,2.21-.16.2-.33.41-.54.56-.22-.35-.31-.79-.25-1.2.02.54.01,1.08-.04,1.62-.17-.09-.36-.14-.56-.13-.03.21.08.42.26.53,0-.06-.04-.13-.1-.15.1,0,.19,0,.29.01-.53-.29-.65-.98-.72-1.58-.12-1.15-.24-2.3-.3-3.46.18,1.04.65,2,1.12,2.94.13.26.28.54.54.66.22-.65.44-1.29.66-1.94-.05.75-.3,1.48-.54,2.2.03-1.15.23-2.3.57-3.4"/><path class="cls-1" d="M23.04,66.33c.46,1.64.24,3.35-.61,4.83l.87-.5c1.07-1.87,1.39-4.68.39-6.64.02.04-.88.42-.87.5.18,1.46.06,2.94-.39,4.35-.22.68-.5,1.34-.86,1.96s-.77,1.21-.75,1.96c0-.14.78-.35.87-.5.59-1.04.86-2.29,1.28-3.4.46-1.22.96-2.42,1.5-3.6l-.87.5c.18,1.26-.55,2.7-.98,3.86-.24.64-.48,1.27-.73,1.91-.14.38-.75,1.4-.44,1.72.01.01.83-.43.87-.5.65-1.07,1.02-2.33,1.46-3.5.48-1.25.96-2.5,1.43-3.75-.09.24-.77.25-.87.5-.89,2.2-1.74,4.42-2.22,6.75.04-.2.75-.3.87-.5,1.28-2.25,2.03-4.72,2.77-7.19-.07.23-.78.26-.87.5-.47,1.27-.95,2.55-1.34,3.85-.19.63-.36,1.27-.51,1.91s-.34,1.31-.18,1.95h.02c.32-.18.7-.34.99-.57.56-.44.71-1.39.89-2.03.23-.83.45-1.67.68-2.51.24-.89.62-1.83.65-2.76,0,.12-.76.39-.87.5-.35.35-.43.96-.57,1.42-.19.61-.37,1.22-.55,1.84-.36,1.23-.69,2.46-.98,3.71.04-.19.74-.33.87-.5.67-.9,1.19-1.9,1.49-2.98.32-1.15.39-2.35.81-3.48l-.87.5c-.47,2.24-1.16,4.41-2.07,6.51.1-.22.69-.31.87-.5.71-.8,1.19-1.74,1.54-2.74s.76-2.15.78-3.21c0,.17-.83.31-.87.5-.43,2.05-.89,4.11-1.95,5.95.14-.25.71-.25.87-.5.53-.82.98-1.64,1.33-2.54s.65-1.78,1.14-2.6l-.87.5c-.37,1.53-.97,2.98-1.6,4.42.11-.24.72-.27.87-.5.86-1.36,1.59-2.78,2.19-4.27-.1.24-.74.26-.87.5-.43.83-.82,1.67-1.14,2.55-.07.18-.42,1.05-.31,1.1.1.04.38-.18.44-.22.52-.3.71-.48.98-1.04.43-.88.85-1.75,1.28-2.63l-.87.5c-.15.68-.54,1.22-.96,1.77.19-.24.66-.27.87-.5.62-.68,1.15-1.43,1.59-2.24-.14.25-.72.25-.87.5-.48.78-1.05,1.5-1.73,2.11-.38.34-.79.67-1.23.94.25-.15.18-.11-.2.08-.15.07-.29.15-.44.22-.47.26-1.03.51-1.38.94-.3.36-.48.82-.69,1.23-.23.43-.41,1.02-.83,1.31l.85-.49c-.19.1-.22.04-.1-.18.04-.15.07-.3.1-.45.06-.3.12-.61.16-.91.09-.61.14-1.23.16-1.85,0,.18-.83.31-.87.5-.14.7-.28,1.4-.42,2.1-.11.55-.13,1.27-.46,1.74l.87-.5c.1-1.17.17-2.34.19-3.51,0,.18-.83.31-.87.5-.27,1.38-.49,2.78-.65,4.18.02-.19.83-.29.87-.5.08-.52.16-1.04.24-1.56.06-.39.23-.87.03-1.24,0,0-.78.44-.85.49-.37.25-.27.79-.28,1.18-.01.66-.03,1.32-.04,1.97,0-.17.86-.32.87-.5.04-.94-.02-1.87-.16-2.8.02.12-.87.35-.87.5.01.99.03,1.97.04,2.96,0-.13.77-.37.87-.5.5-.73,1.02-1.45,1.57-2.15l-.87.5-.79,1.31.87-.5c.27-.75.68-1.41,1.24-1.98l-.87.5c-.25.88-.56,1.74-.93,2.58h.02c.59-.31,1.16-.52,1.26-1.23.08-.59.12-1.17.26-1.75.16-.68.45-1.32.35-2.04.02.13-.84.34-.87.5-.25,1.51-.46,3.02-.63,4.54.02-.19.79-.3.87-.5.41-1.09.82-2.17,1.24-3.26l-.87.5c-.18.68-.37,1.36-.55,2.05.06-.22.75-.28.87-.5.39-.77.84-1.49,1.35-2.18l-.87.5c-.22.55-.45,1.11-.67,1.66l.87-.5c.26-.66.56-1.29.91-1.9l-.87.5c-.4.81-1.01,1.5-1.57,2.2s-1.03,1.5-1.71,2.03l.87-.5c-.21-.39-.29-.75-.25-1.2l-.87.5c.02.54,0,1.08-.04,1.62l.87-.5c-.2-.09-.34-.12-.56-.13-.08,0-.87.45-.87.5,0,.24.07.37.26.53.03.03.87-.5.87-.5,0-.07-.04-.12-.1-.15l-.87.5c.1,0,.19,0,.29.01.17,0,.75-.57.87-.5-.65-.42-.68-1.25-.76-1.95-.11-1.03-.21-2.06-.26-3.09l-.87.5c.14.71.38,1.37.68,2.03.24.53.47,1.26.98,1.58.04.02.84-.44.87-.5.22-.65.44-1.29.66-1.94l-.87.5c-.07.76-.3,1.48-.54,2.2l.87-.5c.04-1.16.24-2.29.57-3.4-.07.23-.79.26-.87.5-.34,1.11-.53,2.24-.57,3.4,0-.18.8-.31.87-.5.25-.72.47-1.43.54-2.2-.02.19-.8.3-.87.5-.22.65-.44,1.29-.66,1.94l.87-.5c-.52-.32-.74-1.05-.98-1.58-.3-.65-.54-1.32-.68-2.03.02.11-.87.37-.87.5.06,1.03.15,2.06.26,3.09.07.7.1,1.53.76,1.95l.87-.5c-.1,0-.19,0-.29-.01-.14,0-.79.56-.87.5.06.03.1.08.1.15l.87-.5c-.19-.15-.25-.28-.26-.53l-.87.5c.22,0,.36.04.56.13.05.02.86-.45.87-.5.04-.54.05-1.08.04-1.62,0,.16-.85.32-.87.5-.04.44.03.81.25,1.2,0,0,.8-.45.87-.5.68-.53,1.18-1.36,1.71-2.03.56-.71,1.17-1.39,1.57-2.2-.12.25-.73.25-.87.5-.35.61-.65,1.25-.91,1.9.09-.24.77-.25.87-.5.22-.55.45-1.11.67-1.66-.09.23-.71.29-.87.5-.51.69-.96,1.42-1.35,2.18l.87-.5c.18-.68.37-1.36.55-2.05-.06.23-.78.27-.87.5-.41,1.09-.82,2.17-1.24,3.26l.87-.5c.16-1.52.37-3.04.63-4.54l-.87.5c.12.85-.29,1.67-.45,2.49-.11.58,0,1.52-.45,1.97l.85-.49c-.07.03.17-.6.16-.57.09-.21.17-.43.25-.64.16-.43.29-.87.42-1.31-.05.19-.72.35-.87.5-.56.57-.97,1.23-1.24,1.98.08-.23.73-.28.87-.5l.79-1.31c-.15.25-.68.27-.87.5-.55.7-1.07,1.41-1.57,2.15l.87-.5c-.01-.99-.03-1.97-.04-2.96l-.87.5c.14.93.2,1.86.16,2.8l.87-.5c.01-.58.02-1.16.03-1.74,0-.39-.13-1.13.26-1.39l-.85.49c.19.36.03.85-.03,1.24-.08.52-.16,1.04-.24,1.56l.87-.5c.16-1.4.38-2.79.65-4.18l-.87.5c-.03,1.17-.09,2.34-.19,3.51.01-.16.76-.35.87-.5.33-.47.35-1.19.46-1.74.14-.7.28-1.4.42-2.1l-.87.5c-.03.89-.13,1.77-.3,2.65-.03.17-.19.52-.15.68.05.17-.13.11.14.06.17-.03.38-.22.53-.3,1.19-.69,1.18-2.33,2.29-3.12l-.13.08c-.87.51.13-.02.34-.13.16-.09.32-.18.48-.27.41-.23.81-.47,1.2-.73,1.08-.75,1.98-1.72,2.66-2.85l-.87.5c-.44.81-.97,1.55-1.59,2.24l.87-.5c.42-.55.81-1.09.96-1.77-.05.21-.76.29-.87.5-.28.58-.57,1.17-.85,1.75-.23.47-.45,1.32-.9,1.62l.85-.49c-.2.01-.09-.05-.06-.21.03-.18.12-.38.18-.55.11-.33.24-.66.37-.98.26-.65.56-1.28.89-1.9l-.87.5c-.6,1.49-1.33,2.91-2.19,4.27l.87-.5c.63-1.44,1.23-2.89,1.6-4.42-.05.21-.75.3-.87.5-.49.82-.79,1.72-1.14,2.6s-.8,1.73-1.33,2.54l.87-.5c1.06-1.83,1.52-3.9,1.95-5.95l-.87.5c-.02,1.06-.43,2.22-.78,3.21s-.82,1.94-1.54,2.74l.87-.5c.91-2.1,1.6-4.27,2.07-6.51-.05.22-.78.28-.87.5-.42,1.13-.49,2.33-.81,3.48-.3,1.08-.82,2.08-1.49,2.98l.87-.5c.28-1.25.62-2.48.98-3.71.18-.61.37-1.22.55-1.84.14-.46.22-1.07.57-1.42l-.87.5c-.03.67-.26,1.32-.43,1.96s-.35,1.29-.53,1.94c-.16.61-.32,1.21-.5,1.82-.16.54-.31,1.19-.75,1.58l.85-.49c-.32.17,0-1.63.03-1.77.15-.68.33-1.36.53-2.02.39-1.3.87-2.58,1.34-3.85l-.87.5c-.73,2.47-1.49,4.94-2.77,7.19l.87-.5c.48-2.33,1.33-4.55,2.22-6.75l-.87.5c-.48,1.25-.96,2.5-1.43,3.75-.45,1.17-.81,2.43-1.46,3.5l.87-.5c-.29-.3.27-1.26.4-1.61.26-.67.52-1.35.77-2.02.43-1.16,1.15-2.6.98-3.86.02.11-.8.36-.87.5-.54,1.18-1.04,2.38-1.5,3.6-.42,1.12-.69,2.36-1.28,3.4l.87-.5c-.02-.71.35-1.27.7-1.86.38-.65.69-1.34.91-2.05.44-1.41.56-2.88.39-4.35l-.87.5c1,1.96.68,4.77-.39,6.64.14-.25.72-.25.87-.5.86-1.47,1.07-3.19.61-4.83.02.07-.89.41-.87.5h0Z"/><path class="cls-1" d="M15.44,52.71c-.26-.08-.44-.32-.51-.59s-.05-.54-.01-.81c.3-2.64,1.19-5.22,2.59-7.49.17-.28.38-.58.71-.64-1.31,2.19-2.25,4.61-2.77,7.11-.22,1.05-.36,2.12-.34,3.2,0,.49.05.99.24,1.44s.55.85,1.02.99"/><path class="cls-1" d="M15.87,52.46c-.79-.35-.54-1.37-.44-2.05.14-.91.35-1.82.62-2.7s.59-1.67.97-2.47c.32-.67.73-1.8,1.4-2.2l-.81.46c.33-.11-.1.38-.19.54-.15.26-.29.53-.42.8-.27.54-.52,1.08-.75,1.64-.46,1.11-.83,2.26-1.11,3.43s-.48,2.4-.49,3.63c0,1.04.16,2.25,1.27,2.66.2.08.67-.57.87-.5-1.11-.41-1.27-1.62-1.27-2.66,0-1.22.21-2.44.49-3.63.26-1.1.6-2.17,1.02-3.22.11-.28,1.5-3.29,1.6-3.23-.11-.06-.63.32-.7.36-.25.15-.49.27-.68.5-.66.79-1.11,1.9-1.5,2.84-.45,1.09-.8,2.23-1.03,3.39-.16.8-.71,2.48.28,2.92.18.08.69-.58.87-.5h0Z"/><circle class="cls-3" cx="35" cy="18" r="17.5"/></g></svg>